<svg width="1440" height="457" fill="none" xmlns="http://www.w3.org/2000/svg">
    <mask id="mask0" style="mask-type:alpha" maskUnits="userSpaceOnUse" x="0" y="0" width="1440" height="457">
        <rect width="1440" height="457" fill="#F6B12D"/>
    </mask>
    <g mask="url(#mask0)">
        <path d="M-247.923 -34.7634C-53.339 -79.0653 217.654 159.081 195.922 240.856C174.189 322.632 103.125 305.163 66.2173 361.871C29.3095 418.58 63.4049 447.91 26.9369 500.5C-9.53106 553.09 -51.4901 512.531 -82.5127 576.351C-113.535 640.171 -89.8655 740.786 -89.8655 740.786L-563.395 267.257C-563.395 267.257 -442.507 9.53853 -247.923 -34.7634Z" fill="#44AFE0"/>
        <path d="M1665.02 852.863C1470.44 897.165 1199.45 659.02 1221.18 577.244C1242.91 495.468 1313.98 512.938 1350.88 456.229C1387.79 399.521 1353.7 370.19 1390.16 317.6C1426.63 265.011 1468.59 305.569 1499.61 241.749C1530.64 177.929 1663.77 234.118 1663.77 234.118L1980.5 550.843C1980.5 550.843 1859.61 808.562 1665.02 852.863Z" fill="#ED3833"/>
    </g>
</svg>
