<svg width="244" height="244" fill="none" xmlns="http://www.w3.org/2000/svg"><mask id="a" style="mask-type:alpha" maskUnits="userSpaceOnUse" x="0" y="0" width="244" height="244"><path d="M122 0C54.621 0 0 54.621 0 122c0 67.379 54.621 122 122 122 67.379 0 122-54.621 122-122C244 54.621 189.379 0 122 0Z" fill="#fff"/></mask><g mask="url(#a)" fill-rule="evenodd" clip-rule="evenodd" fill="#D0D0D0"><path d="M79.474 249.557a2 2 0 1 1 4 0 2 2 0 0 1-4 0Zm2-18a2 2 0 1 0 0 4 2 2 0 0 0 0-4Zm-16 0a2 2 0 1 0 0 4 2 2 0 0 0 0-4Zm-18 2a2 2 0 1 1 4 0 2 2 0 0 1-4 0Zm-14-2a2 2 0 1 0 0 4 2 2 0 0 0 0-4Zm-18 2a2 2 0 1 1 4 0 2 2 0 0 1-4 0Zm-14-2a2 2 0 1 0 0 4 2 2 0 0 0 0-4Zm64 16a2 2 0 1 0 0 4 2 2 0 0 0 0-4Zm-18 2a2 2 0 1 1 4 0 2 2 0 0 1-4 0Zm-14-2a2 2 0 1 0 0 4 2 2 0 0 0 0-4Zm-18 2a2 2 0 1 1 4 0 2 2 0 0 1-4 0Zm-14-2a2 2 0 1 0 0 4 2 2 0 0 0 0-4Zm184-16a2 2 0 1 0 0 4 2 2 0 0 0 0-4Zm-16 0a2 2 0 1 0 0 4 2 2 0 0 0 0-4Zm-18 2a2 2 0 1 1 4 0 2 2 0 0 1-4 0Zm-14-2a2 2 0 1 0 0 4 2 2 0 0 0 0-4Zm-18 2a2 2 0 1 1 4 0 2 2 0 0 1-4 0Zm-14-2a2 2 0 1 0 0 4 2 2 0 0 0 0-4Zm80 16a2 2 0 1 0 0 4 2 2 0 0 0 0-4Zm-10-30a2 2 0 1 1 4 0 2 2 0 0 1-4 0Zm2-18a2 2 0 1 0 0 4 2 2 0 0 0 0-4Zm-16 0a2 2 0 1 0 0 4 2 2 0 0 0 0-4Zm-18 2a2 2 0 1 1 4 0 2 2 0 0 1-4 0Zm-14-2a2 2 0 1 0 0 4 2 2 0 0 0 0-4Zm-18 2a2 2 0 1 1 4 0 2 2 0 0 1-4 0Zm-14-2a2 2 0 1 0 0 4 2 2 0 0 0 0-4Zm64 16a2 2 0 1 0 0 4 2 2 0 0 0 0-4Zm-18 2a2 2 0 1 1 4 0 2 2 0 0 1-4 0Zm-14-2a2 2 0 1 0 0 4 2 2 0 0 0 0-4Zm-18 2a2 2 0 1 1 4 0 2 2 0 0 1-4 0Zm-14-2a2 2 0 1 0 0 4 2 2 0 0 0 0-4Zm72 32a2 2 0 1 0 0 4 2 2 0 0 0 0-4Zm-90-30a2 2 0 1 1 4 0 2 2 0 0 1-4 0Zm2-18a2 2 0 1 0 0 4 2 2 0 0 0 0-4Zm-16 0a2 2 0 1 0 0 4 2 2 0 0 0 0-4Zm-18 2a2 2 0 1 1 4 0 2 2 0 0 1-4 0Zm-14-2a2 2 0 1 0 0 4 2 2 0 0 0 0-4Zm-18 2a2 2 0 1 1 4 0 2 2 0 0 1-4 0Zm-14-2a2 2 0 1 0 0 4 2 2 0 0 0 0-4Zm64 16a2 2 0 1 0 0 4 2 2 0 0 0 0-4Zm-18 2a2 2 0 1 1 4 0 2 2 0 0 1-4 0Zm-14-2a2 2 0 1 0 0 4 2 2 0 0 0 0-4Zm-18 2a2 2 0 1 1 4 0 2 2 0 0 1-4 0Zm-14-2a2 2 0 1 0 0 4 2 2 0 0 0 0-4Zm152 32a2 2 0 1 0 0 4 2 2 0 0 0 0-4Zm-18 2a2 2 0 1 1 4 0 2 2 0 0 1-4 0Zm-14-2a2 2 0 1 0 0 4 2 2 0 0 0 0-4Zm-18 2a2 2 0 1 1 4 0 2 2 0 0 1-4 0ZM79.474 185.557a2 2 0 1 1 4 0 2 2 0 0 1-4 0Zm2-18a2 2 0 1 0 0 4 2 2 0 0 0 0-4Zm-16 0a2 2 0 1 0 0 4 2 2 0 0 0 0-4Zm-18 2a2 2 0 1 1 4 0 2 2 0 0 1-4 0Zm-14-2a2 2 0 1 0 0 4 2 2 0 0 0 0-4Zm-18 2a2 2 0 1 1 4 0 2 2 0 0 1-4 0Zm-14-2a2 2 0 1 0 0 4 2 2 0 0 0 0-4Zm64 16a2 2 0 1 0 0 4 2 2 0 0 0 0-4Zm-18 2a2 2 0 1 1 4 0 2 2 0 0 1-4 0Zm-14-2a2 2 0 1 0 0 4 2 2 0 0 0 0-4Zm-18 2a2 2 0 1 1 4 0 2 2 0 0 1-4 0Zm-14-2a2 2 0 1 0 0 4 2 2 0 0 0 0-4Zm184-16a2 2 0 1 0 0 4 2 2 0 0 0 0-4Zm-16 0a2 2 0 1 0 0 4 2 2 0 0 0 0-4Zm-18 2a2 2 0 1 1 4 0 2 2 0 0 1-4 0Zm-14-2a2 2 0 1 0 0 4 2 2 0 0 0 0-4Zm-18 2a2 2 0 1 1 4 0 2 2 0 0 1-4 0Zm-14-2a2 2 0 1 0 0 4 2 2 0 0 0 0-4Zm80 16a2 2 0 1 0 0 4 2 2 0 0 0 0-4Zm-10-30a2 2 0 1 1 4 0 2 2 0 0 1-4 0Zm2-18a2 2 0 1 0 0 4 2 2 0 0 0 0-4Zm-16 0a2 2 0 1 0 0 4 2 2 0 0 0 0-4Zm-18 2a2 2 0 1 1 4 0 2 2 0 0 1-4 0Zm-14-2a2 2 0 1 0 0 4 2 2 0 0 0 0-4Zm-18 2a2 2 0 1 1 4 0 2 2 0 0 1-4 0Zm-14-2a2 2 0 1 0 0 4 2 2 0 0 0 0-4Zm64 16a2 2 0 1 0 0 4 2 2 0 0 0 0-4Zm-18 2a2 2 0 1 1 4 0 2 2 0 0 1-4 0Zm-14-2a2 2 0 1 0 0 4 2 2 0 0 0 0-4Zm-18 2a2 2 0 1 1 4 0 2 2 0 0 1-4 0Zm-14-2a2 2 0 1 0 0 4 2 2 0 0 0 0-4Zm72 32a2 2 0 1 0 0 4 2 2 0 0 0 0-4Zm-90-30a2 2 0 1 1 4 0 2 2 0 0 1-4 0Zm2-18a2 2 0 1 0 0 4 2 2 0 0 0 0-4Zm-16 0a2 2 0 1 0 0 4 2 2 0 0 0 0-4Zm-18 2a2 2 0 1 1 4 0 2 2 0 0 1-4 0Zm-14-2a2 2 0 1 0 0 4 2 2 0 0 0 0-4Zm-18 2a2 2 0 1 1 4 0 2 2 0 0 1-4 0Zm-14-2a2 2 0 1 0 0 4 2 2 0 0 0 0-4Zm64 16a2 2 0 1 0 0 4 2 2 0 0 0 0-4Zm-18 2a2 2 0 1 1 4 0 2 2 0 0 1-4 0Zm-14-2a2 2 0 1 0 0 4 2 2 0 0 0 0-4Zm-18 2a2 2 0 1 1 4 0 2 2 0 0 1-4 0Zm-14-2a2 2 0 1 0 0 4 2 2 0 0 0 0-4Zm152 32a2 2 0 1 0 0 4 2 2 0 0 0 0-4Zm-18 2a2 2 0 1 1 4 0 2 2 0 0 1-4 0Zm-14-2a2 2 0 1 0 0 4 2 2 0 0 0 0-4Zm-18 2a2 2 0 1 1 4 0 2 2 0 0 1-4 0Z"/></g></svg>