<svg width="244" height="244" viewBox="0 0 244 244" fill="none" xmlns="http://www.w3.org/2000/svg">
    <mask id="mask0" style="mask-type:alpha" maskUnits="userSpaceOnUse" x="0" y="0" width="244" height="244">
        <path d="M122 -1.06656e-05C54.6213 -1.6556e-05 1.6556e-05 54.6212 1.06656e-05 122C4.77514e-06 189.379 54.6213 244 122 244C189.379 244 244 189.379 244 122C244 54.6213 189.379 -4.77514e-06 122 -1.06656e-05Z" fill="white"/>
    </mask>
    <g mask="url(#mask0)">
        <path fill-rule="evenodd" clip-rule="evenodd" d="M79.4736 249.557C79.4736 248.453 80.3691 247.557 81.4736 247.557C82.5782 247.557 83.4736 248.453 83.4736 249.557C83.4736 250.662 82.5782 251.557 81.4736 251.557C80.3691 251.557 79.4736 250.662 79.4736 249.557ZM81.4736 231.557C80.3691 231.557 79.4736 232.453 79.4736 233.557C79.4736 234.662 80.3691 235.557 81.4736 235.557C82.5782 235.557 83.4736 234.662 83.4736 233.557C83.4736 232.453 82.5782 231.557 81.4736 231.557ZM65.4736 231.557C64.3691 231.557 63.4736 232.453 63.4736 233.557C63.4736 234.662 64.3691 235.557 65.4736 235.557C66.5782 235.557 67.4736 234.662 67.4736 233.557C67.4736 232.453 66.5782 231.557 65.4736 231.557ZM47.4736 233.557C47.4736 232.453 48.3691 231.557 49.4736 231.557C50.5782 231.557 51.4736 232.453 51.4736 233.557C51.4736 234.662 50.5782 235.557 49.4736 235.557C48.3691 235.557 47.4736 234.662 47.4736 233.557ZM33.4736 231.557C32.3691 231.557 31.4736 232.453 31.4736 233.557C31.4736 234.662 32.3691 235.557 33.4736 235.557C34.5782 235.557 35.4736 234.662 35.4736 233.557C35.4736 232.453 34.5782 231.557 33.4736 231.557ZM15.4736 233.557C15.4736 232.453 16.3691 231.557 17.4736 231.557C18.5782 231.557 19.4736 232.453 19.4736 233.557C19.4736 234.662 18.5782 235.557 17.4736 235.557C16.3691 235.557 15.4736 234.662 15.4736 233.557ZM1.47363 231.557C0.369066 231.557 -0.526366 232.453 -0.526366 233.557C-0.526366 234.662 0.369066 235.557 1.47363 235.557C2.5782 235.557 3.47363 234.662 3.47363 233.557C3.47363 232.453 2.5782 231.557 1.47363 231.557ZM65.4736 247.557C64.3691 247.557 63.4736 248.453 63.4736 249.557C63.4736 250.662 64.3691 251.557 65.4736 251.557C66.5782 251.557 67.4736 250.662 67.4736 249.557C67.4736 248.453 66.5782 247.557 65.4736 247.557ZM47.4736 249.557C47.4736 248.453 48.3691 247.557 49.4736 247.557C50.5782 247.557 51.4736 248.453 51.4736 249.557C51.4736 250.662 50.5782 251.557 49.4736 251.557C48.3691 251.557 47.4736 250.662 47.4736 249.557ZM33.4736 247.557C32.3691 247.557 31.4736 248.453 31.4736 249.557C31.4736 250.662 32.3691 251.557 33.4736 251.557C34.5782 251.557 35.4736 250.662 35.4736 249.557C35.4736 248.453 34.5782 247.557 33.4736 247.557ZM15.4736 249.557C15.4736 248.453 16.3691 247.557 17.4736 247.557C18.5782 247.557 19.4736 248.453 19.4736 249.557C19.4736 250.662 18.5782 251.557 17.4736 251.557C16.3691 251.557 15.4736 250.662 15.4736 249.557ZM1.47363 247.557C0.369065 247.557 -0.526367 248.453 -0.526367 249.557C-0.526367 250.662 0.369064 251.557 1.47363 251.557C2.5782 251.557 3.47363 250.662 3.47363 249.557C3.47363 248.453 2.5782 247.557 1.47363 247.557ZM185.474 231.557C184.369 231.557 183.474 232.453 183.474 233.557C183.474 234.662 184.369 235.557 185.474 235.557C186.578 235.557 187.474 234.662 187.474 233.557C187.474 232.453 186.578 231.557 185.474 231.557ZM169.474 231.557C168.369 231.557 167.474 232.453 167.474 233.557C167.474 234.662 168.369 235.557 169.474 235.557C170.578 235.557 171.474 234.662 171.474 233.557C171.474 232.453 170.578 231.557 169.474 231.557ZM151.474 233.557C151.474 232.453 152.369 231.557 153.474 231.557C154.578 231.557 155.474 232.453 155.474 233.557C155.474 234.662 154.578 235.557 153.474 235.557C152.369 235.557 151.474 234.662 151.474 233.557ZM137.474 231.557C136.369 231.557 135.474 232.453 135.474 233.557C135.474 234.662 136.369 235.557 137.474 235.557C138.578 235.557 139.474 234.662 139.474 233.557C139.474 232.453 138.578 231.557 137.474 231.557ZM119.474 233.557C119.474 232.453 120.369 231.557 121.474 231.557C122.578 231.557 123.474 232.453 123.474 233.557C123.474 234.662 122.578 235.557 121.474 235.557C120.369 235.557 119.474 234.662 119.474 233.557ZM105.474 231.557C104.369 231.557 103.474 232.453 103.474 233.557C103.474 234.662 104.369 235.557 105.474 235.557C106.578 235.557 107.474 234.662 107.474 233.557C107.474 232.453 106.578 231.557 105.474 231.557ZM185.474 247.557C184.369 247.557 183.474 248.453 183.474 249.557C183.474 250.662 184.369 251.557 185.474 251.557C186.578 251.557 187.474 250.662 187.474 249.557C187.474 248.453 186.578 247.557 185.474 247.557ZM175.474 217.557C175.474 216.453 176.369 215.557 177.474 215.557C178.578 215.557 179.474 216.453 179.474 217.557C179.474 218.662 178.578 219.557 177.474 219.557C176.369 219.557 175.474 218.662 175.474 217.557ZM177.474 199.557C176.369 199.557 175.474 200.453 175.474 201.557C175.474 202.662 176.369 203.557 177.474 203.557C178.578 203.557 179.474 202.662 179.474 201.557C179.474 200.453 178.578 199.557 177.474 199.557ZM161.474 199.557C160.369 199.557 159.474 200.453 159.474 201.557C159.474 202.662 160.369 203.557 161.474 203.557C162.578 203.557 163.474 202.662 163.474 201.557C163.474 200.453 162.578 199.557 161.474 199.557ZM143.474 201.557C143.474 200.453 144.369 199.557 145.474 199.557C146.578 199.557 147.474 200.453 147.474 201.557C147.474 202.662 146.578 203.557 145.474 203.557C144.369 203.557 143.474 202.662 143.474 201.557ZM129.474 199.557C128.369 199.557 127.474 200.453 127.474 201.557C127.474 202.662 128.369 203.557 129.474 203.557C130.578 203.557 131.474 202.662 131.474 201.557C131.474 200.453 130.578 199.557 129.474 199.557ZM111.474 201.557C111.474 200.453 112.369 199.557 113.474 199.557C114.578 199.557 115.474 200.453 115.474 201.557C115.474 202.662 114.578 203.557 113.474 203.557C112.369 203.557 111.474 202.662 111.474 201.557ZM97.4736 199.557C96.3691 199.557 95.4736 200.453 95.4736 201.557C95.4736 202.662 96.3691 203.557 97.4736 203.557C98.5782 203.557 99.4736 202.662 99.4736 201.557C99.4736 200.453 98.5782 199.557 97.4736 199.557ZM161.474 215.557C160.369 215.557 159.474 216.453 159.474 217.557C159.474 218.662 160.369 219.557 161.474 219.557C162.578 219.557 163.474 218.662 163.474 217.557C163.474 216.453 162.578 215.557 161.474 215.557ZM143.474 217.557C143.474 216.453 144.369 215.557 145.474 215.557C146.578 215.557 147.474 216.453 147.474 217.557C147.474 218.662 146.578 219.557 145.474 219.557C144.369 219.557 143.474 218.662 143.474 217.557ZM129.474 215.557C128.369 215.557 127.474 216.453 127.474 217.557C127.474 218.662 128.369 219.557 129.474 219.557C130.578 219.557 131.474 218.662 131.474 217.557C131.474 216.453 130.578 215.557 129.474 215.557ZM111.474 217.557C111.474 216.453 112.369 215.557 113.474 215.557C114.578 215.557 115.474 216.453 115.474 217.557C115.474 218.662 114.578 219.557 113.474 219.557C112.369 219.557 111.474 218.662 111.474 217.557ZM97.4736 215.557C96.3691 215.557 95.4736 216.453 95.4736 217.557C95.4736 218.662 96.3691 219.557 97.4736 219.557C98.5782 219.557 99.4736 218.662 99.4736 217.557C99.4736 216.453 98.5782 215.557 97.4736 215.557ZM169.474 247.557C168.369 247.557 167.474 248.453 167.474 249.557C167.474 250.662 168.369 251.557 169.474 251.557C170.578 251.557 171.474 250.662 171.474 249.557C171.474 248.453 170.578 247.557 169.474 247.557ZM79.4736 217.557C79.4736 216.453 80.3691 215.557 81.4736 215.557C82.5782 215.557 83.4736 216.453 83.4736 217.557C83.4736 218.662 82.5782 219.557 81.4736 219.557C80.3691 219.557 79.4736 218.662 79.4736 217.557ZM81.4736 199.557C80.3691 199.557 79.4736 200.453 79.4736 201.557C79.4736 202.662 80.3691 203.557 81.4736 203.557C82.5782 203.557 83.4736 202.662 83.4736 201.557C83.4736 200.453 82.5782 199.557 81.4736 199.557ZM65.4736 199.557C64.3691 199.557 63.4736 200.453 63.4736 201.557C63.4736 202.662 64.3691 203.557 65.4736 203.557C66.5782 203.557 67.4736 202.662 67.4736 201.557C67.4736 200.453 66.5782 199.557 65.4736 199.557ZM47.4736 201.557C47.4736 200.453 48.3691 199.557 49.4736 199.557C50.5782 199.557 51.4736 200.453 51.4736 201.557C51.4736 202.662 50.5782 203.557 49.4736 203.557C48.3691 203.557 47.4736 202.662 47.4736 201.557ZM33.4736 199.557C32.3691 199.557 31.4736 200.453 31.4736 201.557C31.4736 202.662 32.3691 203.557 33.4736 203.557C34.5782 203.557 35.4736 202.662 35.4736 201.557C35.4736 200.453 34.5782 199.557 33.4736 199.557ZM15.4736 201.557C15.4736 200.453 16.3691 199.557 17.4736 199.557C18.5782 199.557 19.4736 200.453 19.4736 201.557C19.4736 202.662 18.5782 203.557 17.4736 203.557C16.3691 203.557 15.4736 202.662 15.4736 201.557ZM1.47364 199.557C0.369069 199.557 -0.526363 200.453 -0.526363 201.557C-0.526363 202.662 0.369069 203.557 1.47364 203.557C2.57821 203.557 3.47364 202.662 3.47364 201.557C3.47364 200.453 2.57821 199.557 1.47364 199.557ZM65.4736 215.557C64.3691 215.557 63.4736 216.453 63.4736 217.557C63.4736 218.662 64.3691 219.557 65.4736 219.557C66.5782 219.557 67.4736 218.662 67.4736 217.557C67.4736 216.453 66.5782 215.557 65.4736 215.557ZM47.4736 217.557C47.4736 216.453 48.3691 215.557 49.4736 215.557C50.5782 215.557 51.4736 216.453 51.4736 217.557C51.4736 218.662 50.5782 219.557 49.4736 219.557C48.3691 219.557 47.4736 218.662 47.4736 217.557ZM33.4736 215.557C32.3691 215.557 31.4736 216.453 31.4736 217.557C31.4736 218.662 32.3691 219.557 33.4736 219.557C34.5782 219.557 35.4736 218.662 35.4736 217.557C35.4736 216.453 34.5782 215.557 33.4736 215.557ZM15.4736 217.557C15.4736 216.453 16.3691 215.557 17.4736 215.557C18.5782 215.557 19.4736 216.453 19.4736 217.557C19.4736 218.662 18.5782 219.557 17.4736 219.557C16.3691 219.557 15.4736 218.662 15.4736 217.557ZM1.47364 215.557C0.369067 215.557 -0.526364 216.453 -0.526364 217.557C-0.526364 218.662 0.369067 219.557 1.47364 219.557C2.5782 219.557 3.47364 218.662 3.47364 217.557C3.47364 216.453 2.5782 215.557 1.47364 215.557ZM153.474 247.557C152.369 247.557 151.474 248.453 151.474 249.557C151.474 250.662 152.369 251.557 153.474 251.557C154.578 251.557 155.474 250.662 155.474 249.557C155.474 248.453 154.578 247.557 153.474 247.557ZM135.474 249.557C135.474 248.453 136.369 247.557 137.474 247.557C138.578 247.557 139.474 248.453 139.474 249.557C139.474 250.662 138.578 251.557 137.474 251.557C136.369 251.557 135.474 250.662 135.474 249.557ZM121.474 247.557C120.369 247.557 119.474 248.453 119.474 249.557C119.474 250.662 120.369 251.557 121.474 251.557C122.578 251.557 123.474 250.662 123.474 249.557C123.474 248.453 122.578 247.557 121.474 247.557ZM103.474 249.557C103.474 248.453 104.369 247.557 105.474 247.557C106.578 247.557 107.474 248.453 107.474 249.557C107.474 250.662 106.578 251.557 105.474 251.557C104.369 251.557 103.474 250.662 103.474 249.557Z" fill="#F2622B"/>
        <path fill-rule="evenodd" clip-rule="evenodd" d="M79.4736 185.557C79.4736 184.453 80.3691 183.557 81.4736 183.557C82.5782 183.557 83.4736 184.453 83.4736 185.557C83.4736 186.662 82.5782 187.557 81.4736 187.557C80.3691 187.557 79.4736 186.662 79.4736 185.557ZM81.4736 167.557C80.3691 167.557 79.4736 168.453 79.4736 169.557C79.4736 170.662 80.3691 171.557 81.4736 171.557C82.5782 171.557 83.4736 170.662 83.4736 169.557C83.4736 168.453 82.5782 167.557 81.4736 167.557ZM65.4736 167.557C64.3691 167.557 63.4736 168.453 63.4736 169.557C63.4736 170.662 64.3691 171.557 65.4736 171.557C66.5782 171.557 67.4736 170.662 67.4736 169.557C67.4736 168.453 66.5782 167.557 65.4736 167.557ZM47.4736 169.557C47.4736 168.453 48.3691 167.557 49.4736 167.557C50.5782 167.557 51.4736 168.453 51.4736 169.557C51.4736 170.662 50.5782 171.557 49.4736 171.557C48.3691 171.557 47.4736 170.662 47.4736 169.557ZM33.4736 167.557C32.3691 167.557 31.4736 168.453 31.4736 169.557C31.4736 170.662 32.3691 171.557 33.4736 171.557C34.5782 171.557 35.4736 170.662 35.4736 169.557C35.4736 168.453 34.5782 167.557 33.4736 167.557ZM15.4736 169.557C15.4736 168.453 16.3691 167.557 17.4736 167.557C18.5782 167.557 19.4736 168.453 19.4736 169.557C19.4736 170.662 18.5782 171.557 17.4736 171.557C16.3691 171.557 15.4736 170.662 15.4736 169.557ZM1.47363 167.557C0.369066 167.557 -0.526366 168.453 -0.526366 169.557C-0.526366 170.662 0.369066 171.557 1.47363 171.557C2.5782 171.557 3.47363 170.662 3.47363 169.557C3.47363 168.453 2.5782 167.557 1.47363 167.557ZM65.4736 183.557C64.3691 183.557 63.4736 184.453 63.4736 185.557C63.4736 186.662 64.3691 187.557 65.4736 187.557C66.5782 187.557 67.4736 186.662 67.4736 185.557C67.4736 184.453 66.5782 183.557 65.4736 183.557ZM47.4736 185.557C47.4736 184.453 48.3691 183.557 49.4736 183.557C50.5782 183.557 51.4736 184.453 51.4736 185.557C51.4736 186.662 50.5782 187.557 49.4736 187.557C48.3691 187.557 47.4736 186.662 47.4736 185.557ZM33.4736 183.557C32.3691 183.557 31.4736 184.453 31.4736 185.557C31.4736 186.662 32.3691 187.557 33.4736 187.557C34.5782 187.557 35.4736 186.662 35.4736 185.557C35.4736 184.453 34.5782 183.557 33.4736 183.557ZM15.4736 185.557C15.4736 184.453 16.3691 183.557 17.4736 183.557C18.5782 183.557 19.4736 184.453 19.4736 185.557C19.4736 186.662 18.5782 187.557 17.4736 187.557C16.3691 187.557 15.4736 186.662 15.4736 185.557ZM1.47363 183.557C0.369065 183.557 -0.526367 184.453 -0.526367 185.557C-0.526367 186.662 0.369064 187.557 1.47363 187.557C2.5782 187.557 3.47363 186.662 3.47363 185.557C3.47363 184.453 2.5782 183.557 1.47363 183.557ZM185.474 167.557C184.369 167.557 183.474 168.453 183.474 169.557C183.474 170.662 184.369 171.557 185.474 171.557C186.578 171.557 187.474 170.662 187.474 169.557C187.474 168.453 186.578 167.557 185.474 167.557ZM169.474 167.557C168.369 167.557 167.474 168.453 167.474 169.557C167.474 170.662 168.369 171.557 169.474 171.557C170.578 171.557 171.474 170.662 171.474 169.557C171.474 168.453 170.578 167.557 169.474 167.557ZM151.474 169.557C151.474 168.453 152.369 167.557 153.474 167.557C154.578 167.557 155.474 168.453 155.474 169.557C155.474 170.662 154.578 171.557 153.474 171.557C152.369 171.557 151.474 170.662 151.474 169.557ZM137.474 167.557C136.369 167.557 135.474 168.453 135.474 169.557C135.474 170.662 136.369 171.557 137.474 171.557C138.578 171.557 139.474 170.662 139.474 169.557C139.474 168.453 138.578 167.557 137.474 167.557ZM119.474 169.557C119.474 168.453 120.369 167.557 121.474 167.557C122.578 167.557 123.474 168.453 123.474 169.557C123.474 170.662 122.578 171.557 121.474 171.557C120.369 171.557 119.474 170.662 119.474 169.557ZM105.474 167.557C104.369 167.557 103.474 168.453 103.474 169.557C103.474 170.662 104.369 171.557 105.474 171.557C106.578 171.557 107.474 170.662 107.474 169.557C107.474 168.453 106.578 167.557 105.474 167.557ZM185.474 183.557C184.369 183.557 183.474 184.453 183.474 185.557C183.474 186.662 184.369 187.557 185.474 187.557C186.578 187.557 187.474 186.662 187.474 185.557C187.474 184.453 186.578 183.557 185.474 183.557ZM175.474 153.557C175.474 152.453 176.369 151.557 177.474 151.557C178.578 151.557 179.474 152.453 179.474 153.557C179.474 154.662 178.578 155.557 177.474 155.557C176.369 155.557 175.474 154.662 175.474 153.557ZM177.474 135.557C176.369 135.557 175.474 136.453 175.474 137.557C175.474 138.662 176.369 139.557 177.474 139.557C178.578 139.557 179.474 138.662 179.474 137.557C179.474 136.453 178.578 135.557 177.474 135.557ZM161.474 135.557C160.369 135.557 159.474 136.453 159.474 137.557C159.474 138.662 160.369 139.557 161.474 139.557C162.578 139.557 163.474 138.662 163.474 137.557C163.474 136.453 162.578 135.557 161.474 135.557ZM143.474 137.557C143.474 136.453 144.369 135.557 145.474 135.557C146.578 135.557 147.474 136.453 147.474 137.557C147.474 138.662 146.578 139.557 145.474 139.557C144.369 139.557 143.474 138.662 143.474 137.557ZM129.474 135.557C128.369 135.557 127.474 136.453 127.474 137.557C127.474 138.662 128.369 139.557 129.474 139.557C130.578 139.557 131.474 138.662 131.474 137.557C131.474 136.453 130.578 135.557 129.474 135.557ZM111.474 137.557C111.474 136.453 112.369 135.557 113.474 135.557C114.578 135.557 115.474 136.453 115.474 137.557C115.474 138.662 114.578 139.557 113.474 139.557C112.369 139.557 111.474 138.662 111.474 137.557ZM97.4736 135.557C96.3691 135.557 95.4736 136.453 95.4736 137.557C95.4736 138.662 96.3691 139.557 97.4736 139.557C98.5782 139.557 99.4736 138.662 99.4736 137.557C99.4736 136.453 98.5782 135.557 97.4736 135.557ZM161.474 151.557C160.369 151.557 159.474 152.453 159.474 153.557C159.474 154.662 160.369 155.557 161.474 155.557C162.578 155.557 163.474 154.662 163.474 153.557C163.474 152.453 162.578 151.557 161.474 151.557ZM143.474 153.557C143.474 152.453 144.369 151.557 145.474 151.557C146.578 151.557 147.474 152.453 147.474 153.557C147.474 154.662 146.578 155.557 145.474 155.557C144.369 155.557 143.474 154.662 143.474 153.557ZM129.474 151.557C128.369 151.557 127.474 152.453 127.474 153.557C127.474 154.662 128.369 155.557 129.474 155.557C130.578 155.557 131.474 154.662 131.474 153.557C131.474 152.453 130.578 151.557 129.474 151.557ZM111.474 153.557C111.474 152.453 112.369 151.557 113.474 151.557C114.578 151.557 115.474 152.453 115.474 153.557C115.474 154.662 114.578 155.557 113.474 155.557C112.369 155.557 111.474 154.662 111.474 153.557ZM97.4736 151.557C96.3691 151.557 95.4736 152.453 95.4736 153.557C95.4736 154.662 96.3691 155.557 97.4736 155.557C98.5782 155.557 99.4736 154.662 99.4736 153.557C99.4736 152.453 98.5782 151.557 97.4736 151.557ZM169.474 183.557C168.369 183.557 167.474 184.453 167.474 185.557C167.474 186.662 168.369 187.557 169.474 187.557C170.578 187.557 171.474 186.662 171.474 185.557C171.474 184.453 170.578 183.557 169.474 183.557ZM79.4736 153.557C79.4736 152.453 80.3691 151.557 81.4736 151.557C82.5782 151.557 83.4736 152.453 83.4736 153.557C83.4736 154.662 82.5782 155.557 81.4736 155.557C80.3691 155.557 79.4736 154.662 79.4736 153.557ZM81.4736 135.557C80.3691 135.557 79.4736 136.453 79.4736 137.557C79.4736 138.662 80.3691 139.557 81.4736 139.557C82.5782 139.557 83.4736 138.662 83.4736 137.557C83.4736 136.453 82.5782 135.557 81.4736 135.557ZM65.4736 135.557C64.3691 135.557 63.4736 136.453 63.4736 137.557C63.4736 138.662 64.3691 139.557 65.4736 139.557C66.5782 139.557 67.4736 138.662 67.4736 137.557C67.4736 136.453 66.5782 135.557 65.4736 135.557ZM47.4736 137.557C47.4736 136.453 48.3691 135.557 49.4736 135.557C50.5782 135.557 51.4736 136.453 51.4736 137.557C51.4736 138.662 50.5782 139.557 49.4736 139.557C48.3691 139.557 47.4736 138.662 47.4736 137.557ZM33.4736 135.557C32.3691 135.557 31.4736 136.453 31.4736 137.557C31.4736 138.662 32.3691 139.557 33.4736 139.557C34.5782 139.557 35.4736 138.662 35.4736 137.557C35.4736 136.453 34.5782 135.557 33.4736 135.557ZM15.4736 137.557C15.4736 136.453 16.3691 135.557 17.4736 135.557C18.5782 135.557 19.4736 136.453 19.4736 137.557C19.4736 138.662 18.5782 139.557 17.4736 139.557C16.3691 139.557 15.4736 138.662 15.4736 137.557ZM1.47364 135.557C0.369069 135.557 -0.526363 136.453 -0.526363 137.557C-0.526363 138.662 0.369069 139.557 1.47364 139.557C2.57821 139.557 3.47364 138.662 3.47364 137.557C3.47364 136.453 2.57821 135.557 1.47364 135.557ZM65.4736 151.557C64.3691 151.557 63.4736 152.453 63.4736 153.557C63.4736 154.662 64.3691 155.557 65.4736 155.557C66.5782 155.557 67.4736 154.662 67.4736 153.557C67.4736 152.453 66.5782 151.557 65.4736 151.557ZM47.4736 153.557C47.4736 152.453 48.3691 151.557 49.4736 151.557C50.5782 151.557 51.4736 152.453 51.4736 153.557C51.4736 154.662 50.5782 155.557 49.4736 155.557C48.3691 155.557 47.4736 154.662 47.4736 153.557ZM33.4736 151.557C32.3691 151.557 31.4736 152.453 31.4736 153.557C31.4736 154.662 32.3691 155.557 33.4736 155.557C34.5782 155.557 35.4736 154.662 35.4736 153.557C35.4736 152.453 34.5782 151.557 33.4736 151.557ZM15.4736 153.557C15.4736 152.453 16.3691 151.557 17.4736 151.557C18.5782 151.557 19.4736 152.453 19.4736 153.557C19.4736 154.662 18.5782 155.557 17.4736 155.557C16.3691 155.557 15.4736 154.662 15.4736 153.557ZM1.47364 151.557C0.369067 151.557 -0.526364 152.453 -0.526364 153.557C-0.526364 154.662 0.369067 155.557 1.47364 155.557C2.5782 155.557 3.47364 154.662 3.47364 153.557C3.47364 152.453 2.5782 151.557 1.47364 151.557ZM153.474 183.557C152.369 183.557 151.474 184.453 151.474 185.557C151.474 186.662 152.369 187.557 153.474 187.557C154.578 187.557 155.474 186.662 155.474 185.557C155.474 184.453 154.578 183.557 153.474 183.557ZM135.474 185.557C135.474 184.453 136.369 183.557 137.474 183.557C138.578 183.557 139.474 184.453 139.474 185.557C139.474 186.662 138.578 187.557 137.474 187.557C136.369 187.557 135.474 186.662 135.474 185.557ZM121.474 183.557C120.369 183.557 119.474 184.453 119.474 185.557C119.474 186.662 120.369 187.557 121.474 187.557C122.578 187.557 123.474 186.662 123.474 185.557C123.474 184.453 122.578 183.557 121.474 183.557ZM103.474 185.557C103.474 184.453 104.369 183.557 105.474 183.557C106.578 183.557 107.474 184.453 107.474 185.557C107.474 186.662 106.578 187.557 105.474 187.557C104.369 187.557 103.474 186.662 103.474 185.557Z" fill="#F2622B"/>
    </g>
</svg>