<svg width="18" height="18" viewBox="0 0 18 18" fill="none" xmlns="http://www.w3.org/2000/svg">
<circle cx="9" cy="9" r="9" fill="#F2622B"/>
<path d="M10.26 8.41C10.5133 8.45 10.7433 8.55333 10.95 8.72C11.1633 8.88667 11.33 9.09333 11.45 9.34C11.5767 9.58667 11.64 9.85 11.64 10.13C11.64 10.4833 11.55 10.8033 11.37 11.09C11.19 11.37 10.9267 11.5933 10.58 11.76C10.24 11.92 9.83667 12 9.37 12H6.77V5.03H9.27C9.74333 5.03 10.1467 5.11 10.48 5.27C10.8133 5.42333 11.0633 5.63333 11.23 5.9C11.3967 6.16667 11.48 6.46667 11.48 6.8C11.48 7.21333 11.3667 7.55667 11.14 7.83C10.92 8.09667 10.6267 8.29 10.26 8.41ZM7.68 8.04H9.21C9.63667 8.04 9.96667 7.94 10.2 7.74C10.4333 7.54 10.55 7.26333 10.55 6.91C10.55 6.55667 10.4333 6.28 10.2 6.08C9.96667 5.88 9.63 5.78 9.19 5.78H7.68V8.04ZM9.29 11.25C9.74333 11.25 10.0967 11.1433 10.35 10.93C10.6033 10.7167 10.73 10.42 10.73 10.04C10.73 9.65333 10.5967 9.35 10.33 9.13C10.0633 8.90333 9.70667 8.79 9.26 8.79H7.68V11.25H9.29Z" fill="black"/>
</svg>
