<svg width="1320" height="457" viewBox="0 0 1320 457" fill="none" xmlns="http://www.w3.org/2000/svg">
<rect width="1320" height="457" fill="#F6B12D"/>
<mask id="mask0" style="mask-type:alpha" maskUnits="userSpaceOnUse" x="0" y="0" width="1320" height="457">
<rect width="1320" height="457" fill="#F6B12D"/>
</mask>
<g mask="url(#mask0)">
<path d="M-227.264 -34.7634C-48.8947 -79.0653 199.516 159.081 179.594 240.856C159.673 322.632 94.5307 305.163 60.6985 361.871C26.8664 418.58 58.1206 447.91 24.6916 500.5C-8.73746 553.089 -47.1999 512.531 -75.6373 576.351C-104.075 640.171 -82.3774 740.786 -82.3774 740.786L-516.446 267.257C-516.446 267.257 -405.632 9.53853 -227.264 -34.7634Z" fill="#44AFE0"/>
<path d="M1526.27 852.863C1347.9 897.165 1099.49 659.02 1119.41 577.244C1139.33 495.468 1204.48 512.938 1238.31 456.229C1272.14 399.521 1240.89 370.19 1274.31 317.6C1307.74 265.011 1346.21 305.569 1374.64 241.749C1403.08 177.929 1525.12 234.118 1525.12 234.118L1815.45 550.843C1815.45 550.843 1704.64 808.562 1526.27 852.863Z" fill="#ED3833"/>
<path fill-rule="evenodd" clip-rule="evenodd" d="M393.732 363.443C393.732 364.547 392.911 365.443 391.898 365.443C390.886 365.443 390.065 364.547 390.065 363.443C390.065 362.338 390.886 361.443 391.898 361.443C392.911 361.443 393.732 362.338 393.732 363.443ZM391.898 381.443C392.911 381.443 393.732 380.547 393.732 379.443C393.732 378.338 392.911 377.443 391.898 377.443C390.886 377.443 390.065 378.338 390.065 379.443C390.065 380.547 390.886 381.443 391.898 381.443ZM406.565 381.443C407.578 381.443 408.399 380.547 408.399 379.443C408.399 378.338 407.578 377.443 406.565 377.443C405.553 377.443 404.732 378.338 404.732 379.443C404.732 380.547 405.553 381.443 406.565 381.443ZM423.065 379.443C423.065 380.547 422.244 381.443 421.232 381.443C420.219 381.443 419.399 380.547 419.399 379.443C419.399 378.338 420.219 377.443 421.232 377.443C422.244 377.443 423.065 378.338 423.065 379.443ZM435.899 381.443C436.911 381.443 437.732 380.547 437.732 379.443C437.732 378.338 436.911 377.443 435.899 377.443C434.886 377.443 434.065 378.338 434.065 379.443C434.065 380.547 434.886 381.443 435.899 381.443ZM452.399 379.443C452.399 380.547 451.578 381.443 450.565 381.443C449.553 381.443 448.732 380.547 448.732 379.443C448.732 378.338 449.553 377.443 450.565 377.443C451.578 377.443 452.399 378.338 452.399 379.443ZM465.232 381.443C466.244 381.443 467.065 380.547 467.065 379.443C467.065 378.338 466.244 377.443 465.232 377.443C464.219 377.443 463.399 378.338 463.399 379.443C463.399 380.547 464.219 381.443 465.232 381.443ZM406.565 365.443C407.578 365.443 408.399 364.547 408.399 363.443C408.399 362.338 407.578 361.443 406.565 361.443C405.553 361.443 404.732 362.338 404.732 363.443C404.732 364.547 405.553 365.443 406.565 365.443ZM423.065 363.443C423.065 364.547 422.244 365.443 421.232 365.443C420.219 365.443 419.399 364.547 419.399 363.443C419.399 362.338 420.219 361.443 421.232 361.443C422.244 361.443 423.065 362.338 423.065 363.443ZM435.899 365.443C436.911 365.443 437.732 364.547 437.732 363.443C437.732 362.338 436.911 361.443 435.899 361.443C434.886 361.443 434.065 362.338 434.065 363.443C434.065 364.547 434.886 365.443 435.899 365.443ZM452.399 363.443C452.399 364.547 451.578 365.443 450.565 365.443C449.553 365.443 448.732 364.547 448.732 363.443C448.732 362.338 449.553 361.443 450.565 361.443C451.578 361.443 452.399 362.338 452.399 363.443ZM465.232 365.443C466.244 365.443 467.065 364.547 467.065 363.443C467.065 362.338 466.244 361.443 465.232 361.443C464.219 361.443 463.399 362.338 463.399 363.443C463.399 364.547 464.219 365.443 465.232 365.443ZM296.565 381.443C297.577 381.443 298.398 380.547 298.398 379.443C298.398 378.338 297.577 377.443 296.565 377.443C295.552 377.443 294.731 378.338 294.731 379.443C294.731 380.547 295.552 381.443 296.565 381.443ZM311.232 381.443C312.244 381.443 313.065 380.547 313.065 379.443C313.065 378.338 312.244 377.443 311.232 377.443C310.219 377.443 309.398 378.338 309.398 379.443C309.398 380.547 310.219 381.443 311.232 381.443ZM327.732 379.443C327.732 380.547 326.911 381.443 325.898 381.443C324.886 381.443 324.065 380.547 324.065 379.443C324.065 378.338 324.886 377.443 325.898 377.443C326.911 377.443 327.732 378.338 327.732 379.443ZM340.565 381.443C341.577 381.443 342.398 380.547 342.398 379.443C342.398 378.338 341.577 377.443 340.565 377.443C339.552 377.443 338.732 378.338 338.732 379.443C338.732 380.547 339.552 381.443 340.565 381.443ZM357.065 379.443C357.065 380.547 356.244 381.443 355.232 381.443C354.219 381.443 353.398 380.547 353.398 379.443C353.398 378.338 354.219 377.443 355.232 377.443C356.244 377.443 357.065 378.338 357.065 379.443ZM369.898 381.443C370.911 381.443 371.732 380.547 371.732 379.443C371.732 378.338 370.911 377.443 369.898 377.443C368.886 377.443 368.065 378.338 368.065 379.443C368.065 380.547 368.886 381.443 369.898 381.443ZM296.565 365.443C297.577 365.443 298.398 364.547 298.398 363.443C298.398 362.338 297.577 361.443 296.565 361.443C295.552 361.443 294.731 362.338 294.731 363.443C294.731 364.547 295.552 365.443 296.565 365.443ZM305.732 395.443C305.732 396.547 304.911 397.443 303.898 397.443C302.886 397.443 302.065 396.547 302.065 395.443C302.065 394.338 302.886 393.443 303.898 393.443C304.911 393.443 305.732 394.338 305.732 395.443ZM303.898 413.443C304.911 413.443 305.732 412.547 305.732 411.443C305.732 410.338 304.911 409.443 303.898 409.443C302.886 409.443 302.065 410.338 302.065 411.443C302.065 412.547 302.886 413.443 303.898 413.443ZM318.565 413.443C319.578 413.443 320.399 412.547 320.399 411.443C320.399 410.338 319.578 409.443 318.565 409.443C317.553 409.443 316.732 410.338 316.732 411.443C316.732 412.547 317.553 413.443 318.565 413.443ZM335.065 411.443C335.065 412.547 334.244 413.443 333.232 413.443C332.219 413.443 331.399 412.547 331.399 411.443C331.399 410.338 332.219 409.443 333.232 409.443C334.244 409.443 335.065 410.338 335.065 411.443ZM347.899 413.443C348.911 413.443 349.732 412.547 349.732 411.443C349.732 410.338 348.911 409.443 347.899 409.443C346.886 409.443 346.065 410.338 346.065 411.443C346.065 412.547 346.886 413.443 347.899 413.443ZM364.399 411.443C364.399 412.547 363.578 413.443 362.565 413.443C361.553 413.443 360.732 412.547 360.732 411.443C360.732 410.338 361.553 409.443 362.565 409.443C363.578 409.443 364.399 410.338 364.399 411.443ZM377.232 413.443C378.244 413.443 379.065 412.547 379.065 411.443C379.065 410.338 378.244 409.443 377.232 409.443C376.219 409.443 375.399 410.338 375.399 411.443C375.399 412.547 376.219 413.443 377.232 413.443ZM318.565 397.443C319.578 397.443 320.399 396.547 320.399 395.443C320.399 394.338 319.578 393.443 318.565 393.443C317.553 393.443 316.732 394.338 316.732 395.443C316.732 396.547 317.553 397.443 318.565 397.443ZM335.065 395.443C335.065 396.547 334.244 397.443 333.232 397.443C332.219 397.443 331.399 396.547 331.399 395.443C331.399 394.338 332.219 393.443 333.232 393.443C334.244 393.443 335.065 394.338 335.065 395.443ZM347.899 397.443C348.911 397.443 349.732 396.547 349.732 395.443C349.732 394.338 348.911 393.443 347.899 393.443C346.886 393.443 346.065 394.338 346.065 395.443C346.065 396.547 346.886 397.443 347.899 397.443ZM364.399 395.443C364.399 396.547 363.578 397.443 362.565 397.443C361.553 397.443 360.732 396.547 360.732 395.443C360.732 394.338 361.553 393.443 362.565 393.443C363.578 393.443 364.399 394.338 364.399 395.443ZM377.232 397.443C378.244 397.443 379.065 396.547 379.065 395.443C379.065 394.338 378.244 393.443 377.232 393.443C376.219 393.443 375.399 394.338 375.399 395.443C375.399 396.547 376.219 397.443 377.232 397.443ZM311.232 365.443C312.244 365.443 313.065 364.547 313.065 363.443C313.065 362.338 312.244 361.443 311.232 361.443C310.219 361.443 309.398 362.338 309.398 363.443C309.398 364.547 310.219 365.443 311.232 365.443ZM393.732 395.443C393.732 396.547 392.911 397.443 391.898 397.443C390.886 397.443 390.065 396.547 390.065 395.443C390.065 394.338 390.886 393.443 391.898 393.443C392.911 393.443 393.732 394.338 393.732 395.443ZM391.898 413.443C392.911 413.443 393.732 412.547 393.732 411.443C393.732 410.338 392.911 409.443 391.898 409.443C390.886 409.443 390.065 410.338 390.065 411.443C390.065 412.547 390.886 413.443 391.898 413.443ZM406.565 413.443C407.578 413.443 408.399 412.547 408.399 411.443C408.399 410.338 407.578 409.443 406.565 409.443C405.553 409.443 404.732 410.338 404.732 411.443C404.732 412.547 405.553 413.443 406.565 413.443ZM423.065 411.443C423.065 412.547 422.244 413.443 421.232 413.443C420.219 413.443 419.399 412.547 419.399 411.443C419.399 410.338 420.219 409.443 421.232 409.443C422.244 409.443 423.065 410.338 423.065 411.443ZM435.899 413.443C436.911 413.443 437.732 412.547 437.732 411.443C437.732 410.338 436.911 409.443 435.899 409.443C434.886 409.443 434.065 410.338 434.065 411.443C434.065 412.547 434.886 413.443 435.899 413.443ZM452.399 411.443C452.399 412.547 451.578 413.443 450.565 413.443C449.553 413.443 448.732 412.547 448.732 411.443C448.732 410.338 449.553 409.443 450.565 409.443C451.578 409.443 452.399 410.338 452.399 411.443ZM465.232 413.443C466.244 413.443 467.065 412.547 467.065 411.443C467.065 410.338 466.244 409.443 465.232 409.443C464.219 409.443 463.399 410.338 463.399 411.443C463.399 412.547 464.219 413.443 465.232 413.443ZM406.565 397.443C407.578 397.443 408.399 396.547 408.399 395.443C408.399 394.338 407.578 393.443 406.565 393.443C405.553 393.443 404.732 394.338 404.732 395.443C404.732 396.547 405.553 397.443 406.565 397.443ZM423.065 395.443C423.065 396.547 422.244 397.443 421.232 397.443C420.219 397.443 419.399 396.547 419.399 395.443C419.399 394.338 420.219 393.443 421.232 393.443C422.244 393.443 423.065 394.338 423.065 395.443ZM435.899 397.443C436.911 397.443 437.732 396.547 437.732 395.443C437.732 394.338 436.911 393.443 435.899 393.443C434.886 393.443 434.065 394.338 434.065 395.443C434.065 396.547 434.886 397.443 435.899 397.443ZM452.399 395.443C452.399 396.547 451.578 397.443 450.565 397.443C449.553 397.443 448.732 396.547 448.732 395.443C448.732 394.338 449.553 393.443 450.565 393.443C451.578 393.443 452.399 394.338 452.399 395.443ZM465.232 397.443C466.244 397.443 467.065 396.547 467.065 395.443C467.065 394.338 466.244 393.443 465.232 393.443C464.219 393.443 463.399 394.338 463.399 395.443C463.399 396.547 464.219 397.443 465.232 397.443ZM325.898 365.443C326.911 365.443 327.732 364.547 327.732 363.443C327.732 362.338 326.911 361.443 325.898 361.443C324.886 361.443 324.065 362.338 324.065 363.443C324.065 364.547 324.886 365.443 325.898 365.443ZM342.398 363.443C342.398 364.547 341.577 365.443 340.565 365.443C339.552 365.443 338.732 364.547 338.732 363.443C338.732 362.338 339.552 361.443 340.565 361.443C341.577 361.443 342.398 362.338 342.398 363.443ZM355.232 365.443C356.244 365.443 357.065 364.547 357.065 363.443C357.065 362.338 356.244 361.443 355.232 361.443C354.219 361.443 353.398 362.338 353.398 363.443C353.398 364.547 354.219 365.443 355.232 365.443ZM371.732 363.443C371.732 364.547 370.911 365.443 369.898 365.443C368.886 365.443 368.065 364.547 368.065 363.443C368.065 362.338 368.886 361.443 369.898 361.443C370.911 361.443 371.732 362.338 371.732 363.443Z" fill="white"/>
<path fill-rule="evenodd" clip-rule="evenodd" d="M393.732 427.443C393.732 428.547 392.911 429.443 391.898 429.443C390.886 429.443 390.065 428.547 390.065 427.443C390.065 426.338 390.886 425.443 391.898 425.443C392.911 425.443 393.732 426.338 393.732 427.443ZM391.898 445.443C392.911 445.443 393.732 444.547 393.732 443.443C393.732 442.338 392.911 441.443 391.898 441.443C390.886 441.443 390.065 442.338 390.065 443.443C390.065 444.547 390.886 445.443 391.898 445.443ZM406.565 445.443C407.578 445.443 408.399 444.547 408.399 443.443C408.399 442.338 407.578 441.443 406.565 441.443C405.553 441.443 404.732 442.338 404.732 443.443C404.732 444.547 405.553 445.443 406.565 445.443ZM423.065 443.443C423.065 444.547 422.244 445.443 421.232 445.443C420.219 445.443 419.399 444.547 419.399 443.443C419.399 442.338 420.219 441.443 421.232 441.443C422.244 441.443 423.065 442.338 423.065 443.443ZM435.899 445.443C436.911 445.443 437.732 444.547 437.732 443.443C437.732 442.338 436.911 441.443 435.899 441.443C434.886 441.443 434.065 442.338 434.065 443.443C434.065 444.547 434.886 445.443 435.899 445.443ZM452.399 443.443C452.399 444.547 451.578 445.443 450.565 445.443C449.553 445.443 448.732 444.547 448.732 443.443C448.732 442.338 449.553 441.443 450.565 441.443C451.578 441.443 452.399 442.338 452.399 443.443ZM465.232 445.443C466.244 445.443 467.065 444.547 467.065 443.443C467.065 442.338 466.244 441.443 465.232 441.443C464.219 441.443 463.399 442.338 463.399 443.443C463.399 444.547 464.219 445.443 465.232 445.443ZM406.565 429.443C407.578 429.443 408.399 428.547 408.399 427.443C408.399 426.338 407.578 425.443 406.565 425.443C405.553 425.443 404.732 426.338 404.732 427.443C404.732 428.547 405.553 429.443 406.565 429.443ZM423.065 427.443C423.065 428.547 422.244 429.443 421.232 429.443C420.219 429.443 419.399 428.547 419.399 427.443C419.399 426.338 420.219 425.443 421.232 425.443C422.244 425.443 423.065 426.338 423.065 427.443ZM435.899 429.443C436.911 429.443 437.732 428.547 437.732 427.443C437.732 426.338 436.911 425.443 435.899 425.443C434.886 425.443 434.065 426.338 434.065 427.443C434.065 428.547 434.886 429.443 435.899 429.443ZM452.399 427.443C452.399 428.547 451.578 429.443 450.565 429.443C449.553 429.443 448.732 428.547 448.732 427.443C448.732 426.338 449.553 425.443 450.565 425.443C451.578 425.443 452.399 426.338 452.399 427.443ZM465.232 429.443C466.244 429.443 467.065 428.547 467.065 427.443C467.065 426.338 466.244 425.443 465.232 425.443C464.219 425.443 463.399 426.338 463.399 427.443C463.399 428.547 464.219 429.443 465.232 429.443ZM296.565 445.443C297.577 445.443 298.398 444.547 298.398 443.443C298.398 442.338 297.577 441.443 296.565 441.443C295.552 441.443 294.731 442.338 294.731 443.443C294.731 444.547 295.552 445.443 296.565 445.443ZM311.232 445.443C312.244 445.443 313.065 444.547 313.065 443.443C313.065 442.338 312.244 441.443 311.232 441.443C310.219 441.443 309.398 442.338 309.398 443.443C309.398 444.547 310.219 445.443 311.232 445.443ZM327.732 443.443C327.732 444.547 326.911 445.443 325.898 445.443C324.886 445.443 324.065 444.547 324.065 443.443C324.065 442.338 324.886 441.443 325.898 441.443C326.911 441.443 327.732 442.338 327.732 443.443ZM340.565 445.443C341.577 445.443 342.398 444.547 342.398 443.443C342.398 442.338 341.577 441.443 340.565 441.443C339.552 441.443 338.732 442.338 338.732 443.443C338.732 444.547 339.552 445.443 340.565 445.443ZM357.065 443.443C357.065 444.547 356.244 445.443 355.232 445.443C354.219 445.443 353.398 444.547 353.398 443.443C353.398 442.338 354.219 441.443 355.232 441.443C356.244 441.443 357.065 442.338 357.065 443.443ZM369.898 445.443C370.911 445.443 371.732 444.547 371.732 443.443C371.732 442.338 370.911 441.443 369.898 441.443C368.886 441.443 368.065 442.338 368.065 443.443C368.065 444.547 368.886 445.443 369.898 445.443ZM296.565 429.443C297.577 429.443 298.398 428.547 298.398 427.443C298.398 426.338 297.577 425.443 296.565 425.443C295.552 425.443 294.731 426.338 294.731 427.443C294.731 428.547 295.552 429.443 296.565 429.443ZM305.732 459.443C305.732 460.547 304.911 461.443 303.898 461.443C302.886 461.443 302.065 460.547 302.065 459.443C302.065 458.338 302.886 457.443 303.898 457.443C304.911 457.443 305.732 458.338 305.732 459.443ZM303.898 477.443C304.911 477.443 305.732 476.547 305.732 475.443C305.732 474.338 304.911 473.443 303.898 473.443C302.886 473.443 302.065 474.338 302.065 475.443C302.065 476.547 302.886 477.443 303.898 477.443ZM318.565 477.443C319.578 477.443 320.399 476.547 320.399 475.443C320.399 474.338 319.578 473.443 318.565 473.443C317.553 473.443 316.732 474.338 316.732 475.443C316.732 476.547 317.553 477.443 318.565 477.443ZM335.065 475.443C335.065 476.547 334.244 477.443 333.232 477.443C332.219 477.443 331.399 476.547 331.399 475.443C331.399 474.338 332.219 473.443 333.232 473.443C334.244 473.443 335.065 474.338 335.065 475.443ZM347.899 477.443C348.911 477.443 349.732 476.547 349.732 475.443C349.732 474.338 348.911 473.443 347.899 473.443C346.886 473.443 346.065 474.338 346.065 475.443C346.065 476.547 346.886 477.443 347.899 477.443ZM364.399 475.443C364.399 476.547 363.578 477.443 362.565 477.443C361.553 477.443 360.732 476.547 360.732 475.443C360.732 474.338 361.553 473.443 362.565 473.443C363.578 473.443 364.399 474.338 364.399 475.443ZM377.232 477.443C378.244 477.443 379.065 476.547 379.065 475.443C379.065 474.338 378.244 473.443 377.232 473.443C376.219 473.443 375.399 474.338 375.399 475.443C375.399 476.547 376.219 477.443 377.232 477.443ZM318.565 461.443C319.578 461.443 320.399 460.547 320.399 459.443C320.399 458.338 319.578 457.443 318.565 457.443C317.553 457.443 316.732 458.338 316.732 459.443C316.732 460.547 317.553 461.443 318.565 461.443ZM335.065 459.443C335.065 460.547 334.244 461.443 333.232 461.443C332.219 461.443 331.399 460.547 331.399 459.443C331.399 458.338 332.219 457.443 333.232 457.443C334.244 457.443 335.065 458.338 335.065 459.443ZM347.899 461.443C348.911 461.443 349.732 460.547 349.732 459.443C349.732 458.338 348.911 457.443 347.899 457.443C346.886 457.443 346.065 458.338 346.065 459.443C346.065 460.547 346.886 461.443 347.899 461.443ZM364.399 459.443C364.399 460.547 363.578 461.443 362.565 461.443C361.553 461.443 360.732 460.547 360.732 459.443C360.732 458.338 361.553 457.443 362.565 457.443C363.578 457.443 364.399 458.338 364.399 459.443ZM377.232 461.443C378.244 461.443 379.065 460.547 379.065 459.443C379.065 458.338 378.244 457.443 377.232 457.443C376.219 457.443 375.399 458.338 375.399 459.443C375.399 460.547 376.219 461.443 377.232 461.443ZM311.232 429.443C312.244 429.443 313.065 428.547 313.065 427.443C313.065 426.338 312.244 425.443 311.232 425.443C310.219 425.443 309.398 426.338 309.398 427.443C309.398 428.547 310.219 429.443 311.232 429.443ZM393.732 459.443C393.732 460.547 392.911 461.443 391.898 461.443C390.886 461.443 390.065 460.547 390.065 459.443C390.065 458.338 390.886 457.443 391.898 457.443C392.911 457.443 393.732 458.338 393.732 459.443ZM391.898 477.443C392.911 477.443 393.732 476.547 393.732 475.443C393.732 474.338 392.911 473.443 391.898 473.443C390.886 473.443 390.065 474.338 390.065 475.443C390.065 476.547 390.886 477.443 391.898 477.443ZM406.565 477.443C407.578 477.443 408.399 476.547 408.399 475.443C408.399 474.338 407.578 473.443 406.565 473.443C405.553 473.443 404.732 474.338 404.732 475.443C404.732 476.547 405.553 477.443 406.565 477.443ZM423.065 475.443C423.065 476.547 422.244 477.443 421.232 477.443C420.219 477.443 419.399 476.547 419.399 475.443C419.399 474.338 420.219 473.443 421.232 473.443C422.244 473.443 423.065 474.338 423.065 475.443ZM435.899 477.443C436.911 477.443 437.732 476.547 437.732 475.443C437.732 474.338 436.911 473.443 435.899 473.443C434.886 473.443 434.065 474.338 434.065 475.443C434.065 476.547 434.886 477.443 435.899 477.443ZM452.399 475.443C452.399 476.547 451.578 477.443 450.565 477.443C449.553 477.443 448.732 476.547 448.732 475.443C448.732 474.338 449.553 473.443 450.565 473.443C451.578 473.443 452.399 474.338 452.399 475.443ZM465.232 477.443C466.244 477.443 467.065 476.547 467.065 475.443C467.065 474.338 466.244 473.443 465.232 473.443C464.219 473.443 463.399 474.338 463.399 475.443C463.399 476.547 464.219 477.443 465.232 477.443ZM406.565 461.443C407.578 461.443 408.399 460.547 408.399 459.443C408.399 458.338 407.578 457.443 406.565 457.443C405.553 457.443 404.732 458.338 404.732 459.443C404.732 460.547 405.553 461.443 406.565 461.443ZM423.065 459.443C423.065 460.547 422.244 461.443 421.232 461.443C420.219 461.443 419.399 460.547 419.399 459.443C419.399 458.338 420.219 457.443 421.232 457.443C422.244 457.443 423.065 458.338 423.065 459.443ZM435.899 461.443C436.911 461.443 437.732 460.547 437.732 459.443C437.732 458.338 436.911 457.443 435.899 457.443C434.886 457.443 434.065 458.338 434.065 459.443C434.065 460.547 434.886 461.443 435.899 461.443ZM452.399 459.443C452.399 460.547 451.578 461.443 450.565 461.443C449.553 461.443 448.732 460.547 448.732 459.443C448.732 458.338 449.553 457.443 450.565 457.443C451.578 457.443 452.399 458.338 452.399 459.443ZM465.232 461.443C466.244 461.443 467.065 460.547 467.065 459.443C467.065 458.338 466.244 457.443 465.232 457.443C464.219 457.443 463.399 458.338 463.399 459.443C463.399 460.547 464.219 461.443 465.232 461.443ZM325.898 429.443C326.911 429.443 327.732 428.547 327.732 427.443C327.732 426.338 326.911 425.443 325.898 425.443C324.886 425.443 324.065 426.338 324.065 427.443C324.065 428.547 324.886 429.443 325.898 429.443ZM342.398 427.443C342.398 428.547 341.577 429.443 340.565 429.443C339.552 429.443 338.732 428.547 338.732 427.443C338.732 426.338 339.552 425.443 340.565 425.443C341.577 425.443 342.398 426.338 342.398 427.443ZM355.232 429.443C356.244 429.443 357.065 428.547 357.065 427.443C357.065 426.338 356.244 425.443 355.232 425.443C354.219 425.443 353.398 426.338 353.398 427.443C353.398 428.547 354.219 429.443 355.232 429.443ZM371.732 427.443C371.732 428.547 370.911 429.443 369.898 429.443C368.886 429.443 368.065 428.547 368.065 427.443C368.065 426.338 368.886 425.443 369.898 425.443C370.911 425.443 371.732 426.338 371.732 427.443Z" fill="white"/>
</g>
</svg>
