<svg width="14" height="14" viewBox="0 0 14 14" fill="none" xmlns="http://www.w3.org/2000/svg">
<path d="M12.9903 0H1.00969C0.452026 0 0 0.452026 0 1.00969V12.9903C0 13.548 0.452026 14 1.00969 14H12.9903C13.548 14 14 13.548 14 12.9903V1.00969C14 0.452026 13.548 0 12.9903 0V0ZM4.96588 10.582H3.26106V5.45305H4.96588V10.582ZM4.11353 4.75269H4.10242C3.53033 4.75269 3.16034 4.35887 3.16034 3.86668C3.16034 3.36339 3.54166 2.98047 4.12485 2.98047C4.70804 2.98047 5.06693 3.36339 5.07803 3.86668C5.07803 4.35887 4.70804 4.75269 4.11353 4.75269ZM11.1131 10.582H9.40849V7.83815C9.40849 7.14857 9.16165 6.67828 8.54482 6.67828C8.07388 6.67828 7.7934 6.99551 7.67014 7.30174C7.62506 7.41133 7.61406 7.5645 7.61406 7.71777V10.582H5.90935C5.90935 10.582 5.93167 5.93423 5.90935 5.45305H7.61406V6.17926C7.84061 5.82977 8.24596 5.33267 9.15044 5.33267C10.2721 5.33267 11.1131 6.06572 11.1131 7.64108V10.582Z" fill="#006CA3"/>
</svg>
