<svg width="75" height="23" viewBox="0 0 75 23" fill="none" xmlns="http://www.w3.org/2000/svg">
<path d="M14.1591 7.57861C13.4356 7.57861 12.8546 8.16483 12.8546 8.88309V18.3841C12.8546 18.3841 9.12077 14.6502 8.75108 14.27C8.50286 13.9954 8.14373 13.8158 7.73708 13.8158C7.3357 13.8158 6.97657 13.9901 6.72835 14.27H6.72307C6.35338 14.645 2.61951 18.3841 2.61951 18.3841V8.88309C2.61951 8.15955 2.03329 7.57861 1.30976 7.57861C0.586224 7.57861 0 8.16483 0 8.88309V21.5212C0 21.537 0.0158448 21.8486 0.0422512 21.9173C0.195408 22.5352 0.755224 22.9947 1.42067 22.9947C1.74282 22.9947 2.03329 22.8838 2.27095 22.7095C2.92583 22.2236 7.72651 17.3014 7.72651 17.3014C7.7318 17.3014 12.5325 22.2236 13.1874 22.7095C13.425 22.8838 13.7208 22.9947 14.0376 22.9947C14.7031 22.9947 15.2629 22.5352 15.4161 21.9173C15.4425 21.8486 15.4583 21.537 15.4583 21.5212V8.88309C15.4636 8.15955 14.8826 7.57861 14.1591 7.57861Z" fill="#565353"/>
<path d="M56.3669 8.84097C56.3669 8.128 55.7912 7.55762 55.0835 7.55762C54.3706 7.55762 53.7949 8.13328 53.7949 8.84097V21.7114C53.7949 22.4244 54.3706 23.0001 55.0835 23.0001C55.7912 23.0001 56.3669 22.4244 56.3669 21.7114V8.84097Z" fill="white"/>
<path d="M41.2466 15.2419C41.2466 16.5041 42.2712 17.5287 43.5334 17.5287C44.7956 17.5287 45.8202 16.5041 45.8202 15.2419C45.8202 13.9796 44.7956 12.9551 43.5334 12.9551C42.2712 12.9551 41.2466 13.9796 41.2466 15.2419Z" fill="#F2622B"/>
<path d="M14.1591 7.57861C13.4356 7.57861 12.8546 8.16483 12.8546 8.88309V18.3841C12.8546 18.3841 9.12077 14.6502 8.75108 14.27C8.50286 13.9954 8.14373 13.8158 7.73708 13.8158C7.3357 13.8158 6.97657 13.9901 6.72835 14.27H6.72307C6.35338 14.645 2.61951 18.3841 2.61951 18.3841V8.88309C2.61951 8.15955 2.03329 7.57861 1.30976 7.57861C0.586224 7.57861 0 8.16483 0 8.88309V21.5212C0 21.537 0.0158448 21.8486 0.0422512 21.9173C0.195408 22.5352 0.755224 22.9947 1.42067 22.9947C1.74282 22.9947 2.03329 22.8838 2.27095 22.7095C2.92583 22.2236 7.72651 17.3014 7.72651 17.3014C7.7318 17.3014 12.5325 22.2236 13.1874 22.7095C13.425 22.8838 13.7208 22.9947 14.0376 22.9947C14.7031 22.9947 15.2629 22.5352 15.4161 21.9173C15.4425 21.8486 15.4583 21.537 15.4583 21.5212V8.88309C15.4636 8.15955 14.8826 7.57861 14.1591 7.57861Z" fill="white"/>
<path d="M38.3 1.28335C38.3 0.570378 37.7244 0 37.0167 0C36.309 0 35.728 0.57566 35.728 1.28335V15.6432C35.728 16.3561 36.3037 16.9318 37.0167 16.9318C37.7244 16.9318 38.3 16.3561 38.3 15.6432V1.28335Z" fill="white"/>
<path d="M43.4281 10.1823C40.6185 10.1823 38.337 12.4691 38.337 15.2787C38.337 18.0884 40.6238 20.3752 43.4281 20.3752C46.2378 20.3752 48.5246 18.0884 48.5246 15.2787C48.5193 12.4691 46.2378 10.1823 43.4281 10.1823ZM43.4281 22.9788C39.182 22.9788 35.728 19.5249 35.728 15.2787C35.728 11.0326 39.182 7.57861 43.4281 7.57861C47.6743 7.57861 51.1282 11.0326 51.1282 15.2787C51.1282 19.5249 47.6743 22.9788 43.4281 22.9788Z" fill="white"/>
<path d="M33.1346 16.9844C33.2138 16.657 33.1663 16.3032 32.9709 15.9916C32.5906 15.3789 31.7879 15.1941 31.1752 15.5743C30.8583 15.7697 30.6577 16.0866 30.589 16.4246C30.3725 17.3594 29.8972 18.2255 29.1895 18.9227C29.105 19.0072 29.0152 19.0811 28.9254 19.1603C28.8832 19.1973 28.8409 19.2343 28.7987 19.2712C28.7194 19.3346 28.6349 19.3927 28.5557 19.4508C28.4976 19.4931 28.4342 19.5353 28.3709 19.5775C28.2916 19.6251 28.2124 19.6726 28.1332 19.7149C28.0646 19.7518 27.9959 19.7941 27.9272 19.831C27.8375 19.8733 27.7477 19.9156 27.6579 19.9525C27.5998 19.9789 27.5364 20.0053 27.4731 20.0317C27.3727 20.074 27.2671 20.1057 27.1615 20.1374C27.1086 20.1532 27.0611 20.1691 27.0083 20.1849C26.8974 20.2166 26.7812 20.243 26.665 20.2641C26.6175 20.2747 26.5752 20.2852 26.5277 20.2905C26.4115 20.3116 26.3006 20.3275 26.1844 20.3381C26.1369 20.3433 26.0894 20.3486 26.0365 20.3539C25.9309 20.3645 25.82 20.3645 25.7091 20.3697C25.651 20.3697 25.5929 20.375 25.5348 20.3697C25.4398 20.3697 25.3447 20.3645 25.2496 20.3539C25.1757 20.3486 25.1018 20.3433 25.0278 20.3381C24.9486 20.3275 24.8694 20.3169 24.7902 20.3011C24.7004 20.2852 24.6159 20.2747 24.5261 20.2536C24.4627 20.2377 24.3993 20.2219 24.336 20.206C24.2356 20.1796 24.1353 20.1532 24.0402 20.1215C23.9874 20.1057 23.9346 20.0846 23.8871 20.0687C23.7814 20.0317 23.6811 19.9948 23.5807 19.9472C23.5332 19.9261 23.4857 19.905 23.4382 19.8786C23.3378 19.8311 23.2375 19.7835 23.1424 19.7307C23.0896 19.7043 23.0421 19.6726 22.9892 19.6409C22.8995 19.5881 22.8097 19.5353 22.7252 19.4772C22.6671 19.435 22.609 19.3927 22.5509 19.3452C22.477 19.2924 22.403 19.2343 22.3344 19.1762C22.271 19.1234 22.2076 19.06 22.1442 19.0019C22.0809 18.9438 22.0175 18.891 21.9594 18.8276C21.9013 18.7695 21.8538 18.7114 21.801 18.648C21.7376 18.5741 21.6742 18.5054 21.6161 18.4315C21.5791 18.384 21.5475 18.3364 21.5158 18.2889C21.4471 18.1939 21.3785 18.0988 21.3151 17.9985C21.2887 17.9562 21.2675 17.9139 21.2411 17.8717C21.1778 17.7661 21.1197 17.6604 21.0669 17.5548C21.0405 17.502 21.0193 17.4492 20.9929 17.3964C20.9507 17.3013 20.9031 17.201 20.8662 17.1006C20.8398 17.032 20.8186 16.9633 20.7975 16.8947C20.7711 16.8102 20.7394 16.7257 20.7183 16.6359C20.6972 16.5567 20.6813 16.4774 20.6602 16.3982C20.6444 16.319 20.6232 16.2398 20.6127 16.1606C20.5968 16.0761 20.5863 15.9968 20.581 15.9123C20.5704 15.8331 20.5599 15.7486 20.5546 15.6694C20.5493 15.5902 20.5493 15.5162 20.544 15.437C20.544 15.3472 20.5387 15.2575 20.544 15.1677C20.544 15.099 20.5493 15.0356 20.5546 14.967C20.5599 14.8666 20.5704 14.761 20.581 14.6607C20.5863 14.6079 20.5968 14.5551 20.6021 14.5075C20.618 14.3913 20.6391 14.2804 20.6655 14.1642C20.676 14.1273 20.6866 14.0903 20.6919 14.048C20.7236 13.9266 20.7553 13.8051 20.7975 13.6836C20.8081 13.6519 20.8186 13.6255 20.8292 13.5939C20.8715 13.4671 20.919 13.3456 20.9718 13.2242C20.9824 13.1978 20.9982 13.1661 21.014 13.1397C21.0669 13.0182 21.125 12.902 21.1883 12.7911C21.2095 12.7541 21.2306 12.7224 21.2517 12.6855C21.3151 12.5798 21.3785 12.4795 21.4471 12.3792C21.4788 12.3316 21.5158 12.2894 21.5475 12.2418C21.6108 12.1573 21.6742 12.0676 21.7481 11.9884C21.7957 11.9355 21.8432 11.8827 21.8907 11.8299C21.9594 11.756 22.0228 11.682 22.0967 11.6134C22.1284 11.5817 22.1601 11.5553 22.1918 11.5236C22.2816 11.4444 22.3713 11.3652 22.4664 11.2912C22.4981 11.2648 22.5351 11.2384 22.572 11.212C22.6724 11.1381 22.778 11.0641 22.8836 10.9955C24.4997 9.96034 26.5752 9.92865 28.223 10.9004L23.6547 14.9353C23.1477 15.437 23.1477 16.2503 23.6494 16.7521C24.1511 17.2591 24.9644 17.2591 25.4662 16.7626L29.9817 12.7858C30.0028 12.7647 30.0186 12.7436 30.0398 12.7224V12.7277L30.9376 11.8352C30.9481 11.8193 30.9587 11.8035 30.9693 11.7929C31.5344 11.2331 31.5396 10.3195 30.9798 9.74908C30.9745 9.7438 30.9693 9.73853 30.964 9.72796C30.9481 9.7174 30.9376 9.70156 30.9217 9.68571C30.9006 9.65931 30.8742 9.6329 30.8425 9.61177C28.5452 7.49926 25.2602 7.03979 22.5298 8.23864C22.477 8.25977 22.4189 8.28617 22.3608 8.31258C22.3502 8.31786 22.3396 8.32314 22.3291 8.32842C22.2446 8.37067 22.1548 8.41292 22.0597 8.46574C22.0281 8.48158 21.9911 8.50271 21.9594 8.51855C21.9119 8.54496 21.8696 8.57136 21.8221 8.59777C21.7376 8.6453 21.6584 8.69283 21.5739 8.74564C21.5686 8.74564 21.5686 8.75092 21.5633 8.75092C21.558 8.75092 21.558 8.75621 21.5527 8.75621C21.4524 8.81958 21.3468 8.88824 21.2464 8.95689C21.2359 8.96217 21.2253 8.97274 21.2147 8.97802C21.125 9.04139 21.0352 9.10477 20.9454 9.17343C20.9243 9.18927 20.9031 9.20511 20.882 9.22096C20.8081 9.27905 20.7341 9.34243 20.6602 9.40052C20.6285 9.42693 20.6021 9.45334 20.5704 9.47446C20.507 9.52727 20.4489 9.58537 20.3856 9.64346C20.3486 9.67515 20.3116 9.71212 20.2799 9.74381C20.2535 9.76493 20.2271 9.79134 20.206 9.81247C20.1743 9.84415 20.1479 9.87584 20.1162 9.90225C20.0793 9.93922 20.0423 9.97619 20.0053 10.0184C19.9472 10.0765 19.8944 10.1399 19.8416 10.198C19.8152 10.2297 19.7888 10.2614 19.7624 10.2878C19.699 10.3617 19.6409 10.4357 19.5828 10.5096C19.567 10.5254 19.5564 10.5466 19.5406 10.5624C19.4719 10.6522 19.4033 10.742 19.3399 10.837L19.3346 10.8423C18.6058 11.8774 18.1569 13.0552 17.9984 14.2593C17.9984 14.2646 17.9984 14.2646 17.9984 14.2699C17.9826 14.3808 17.972 14.497 17.9615 14.6079C17.9615 14.6343 17.9562 14.666 17.9562 14.6924C17.9509 14.7821 17.9456 14.8666 17.9403 14.9564C17.9403 15.0092 17.9403 15.0621 17.9351 15.1096C17.9351 15.173 17.9351 15.2416 17.9351 15.305C17.9351 15.3789 17.9351 15.4476 17.9403 15.5215C17.9403 15.5691 17.9403 15.6166 17.9456 15.6588C17.9509 15.7433 17.9562 15.8278 17.9615 15.9176C17.9615 15.9493 17.9667 15.9863 17.972 16.018C17.9826 16.113 17.9932 16.2028 18.0037 16.2979C18.009 16.3243 18.009 16.356 18.0143 16.3824C18.0301 16.4774 18.046 16.5725 18.0618 16.6676C18.0671 16.694 18.0724 16.7257 18.0777 16.7521C18.0935 16.8419 18.1146 16.9316 18.1357 17.0214C18.141 17.0531 18.1516 17.0901 18.1622 17.1218C18.1833 17.201 18.2044 17.2855 18.2255 17.3647C18.2361 17.4069 18.2519 17.4545 18.2625 17.4967C18.2836 17.5654 18.3048 17.6288 18.3259 17.6974C18.347 17.7555 18.3628 17.8136 18.384 17.8717C18.3998 17.9245 18.4209 17.972 18.4421 18.0249C18.4685 18.0988 18.5002 18.1727 18.5318 18.2467C18.5477 18.2836 18.5635 18.3153 18.5794 18.3523C18.6163 18.4421 18.6586 18.5319 18.7008 18.6216C18.7114 18.6428 18.722 18.6639 18.7325 18.6797C18.7801 18.7801 18.8329 18.8804 18.891 18.9808C18.8963 18.9913 18.9015 19.0019 18.9068 19.0072C18.9649 19.1128 19.0283 19.2184 19.0917 19.324C19.0917 19.3293 19.0969 19.3293 19.0969 19.3346C19.0969 19.3346 19.1022 19.3399 19.1022 19.3452C19.1656 19.4455 19.2343 19.5459 19.2976 19.6462C19.3082 19.6568 19.3135 19.6726 19.324 19.6832C19.3821 19.7677 19.4455 19.8522 19.5142 19.9367C19.5353 19.9631 19.5511 19.9842 19.5723 20.0106C19.6251 20.0793 19.6832 20.1479 19.736 20.2166C19.7677 20.2536 19.7994 20.2905 19.831 20.3275C19.8786 20.3803 19.9261 20.4331 19.9736 20.4859C20.0159 20.5335 20.0634 20.581 20.1057 20.6285C20.1215 20.6497 20.1426 20.6708 20.1638 20.6866C20.1902 20.713 20.2166 20.7342 20.2377 20.7606C20.2852 20.8081 20.3328 20.8556 20.3856 20.8979C20.4331 20.9401 20.4806 20.9876 20.5282 21.0299C20.5704 21.0669 20.618 21.1091 20.6602 21.1461C20.7183 21.1936 20.7764 21.2412 20.8345 21.2887C20.8662 21.3151 20.9031 21.3415 20.9401 21.3679C21.014 21.426 21.088 21.4788 21.1619 21.5316C21.183 21.5475 21.2042 21.5633 21.2253 21.5739C21.3151 21.6372 21.4049 21.6953 21.4946 21.7534C21.4999 21.7587 21.5052 21.764 21.5158 21.764C22.2551 22.2288 23.0526 22.5615 23.8765 22.7516C23.8871 22.7569 23.8976 22.7569 23.9135 22.7569C24.0138 22.778 24.1194 22.7991 24.2198 22.8203C24.2568 22.8255 24.2937 22.8308 24.3307 22.8414C24.4099 22.8519 24.4838 22.8678 24.5631 22.8783C24.6264 22.8889 24.6898 22.8942 24.7532 22.8995C24.806 22.9048 24.8535 22.91 24.9064 22.9153C24.9961 22.9259 25.0859 22.9312 25.181 22.9364C25.2074 22.9364 25.2285 22.9417 25.2549 22.9417C25.3711 22.947 25.4873 22.9523 25.6035 22.9523C26.57 22.9576 27.547 22.7833 28.4818 22.4083C28.4976 22.403 28.5135 22.3978 28.5293 22.3925C28.6191 22.3555 28.7142 22.3133 28.8039 22.2763C28.8356 22.2604 28.8673 22.2499 28.899 22.234C28.9782 22.1971 29.0522 22.1601 29.1261 22.1231C29.1683 22.102 29.2159 22.0756 29.2581 22.0545C29.3215 22.0175 29.3902 21.9858 29.4535 21.9488C29.5011 21.9224 29.5539 21.8908 29.6014 21.8591C29.6331 21.8379 29.6701 21.8221 29.707 21.801C29.7334 21.7851 29.7598 21.764 29.7863 21.7482C29.8338 21.7165 29.8813 21.6848 29.9288 21.6531C29.9922 21.6108 30.0609 21.5633 30.1243 21.5211C30.1612 21.4947 30.1929 21.4682 30.2299 21.4418C30.3038 21.389 30.3778 21.3309 30.4517 21.2728C30.4728 21.257 30.4939 21.2359 30.5151 21.22C30.5996 21.1514 30.6788 21.0827 30.758 21.0141C30.7686 21.0035 30.7844 20.9929 30.795 20.9824C30.8795 20.9032 30.964 20.8239 31.0485 20.7447C31.0538 20.7394 31.059 20.7394 31.059 20.7341C32.11 19.7043 32.8177 18.3893 33.1346 16.9844Z" fill="white"/>
<path d="M73.4256 20.2748H63.7344C66.2324 17.7979 69.9822 14.0218 71.6669 12.3159L73.8269 10.214C74.1016 9.88124 74.4501 9.49042 74.4501 8.98342C74.4554 8.21763 73.8375 7.55219 73.077 7.54691H71.4028H71.387H60.6501C59.9266 7.54163 59.3404 8.12785 59.3351 8.8461C59.3298 9.56964 59.9108 10.1559 60.629 10.1559H69.7656C67.7482 12.1733 64.5107 15.416 62.7996 17.1272C61.3895 18.4897 60.1379 19.7308 59.446 20.4808C59.3034 20.6339 58.939 20.9508 58.939 21.5476C58.9337 22.2764 59.5199 22.9154 60.2488 22.9207C60.2752 22.9207 60.3702 22.9207 60.3966 22.9207H73.4044C74.128 22.926 74.7195 22.3398 74.7247 21.611C74.7353 20.8927 74.1491 20.2748 73.4256 20.2748Z" fill="white"/>
</svg>
