<svg width="523" height="670" viewBox="0 0 523 670" fill="none" xmlns="http://www.w3.org/2000/svg">
<mask id="mask0" style="mask-type:alpha" maskUnits="userSpaceOnUse" x="0" y="425" width="244" height="245">
<path d="M122 669.441C189.379 669.441 244 614.82 244 547.441C244 480.062 189.379 425.441 122 425.441C54.6213 425.441 0 480.062 0 547.441C0 614.82 54.6213 669.441 122 669.441Z" fill="white"/>
</mask>
<g mask="url(#mask0)">
<path fill-rule="evenodd" clip-rule="evenodd" d="M164.526 419.884C164.526 420.988 163.631 421.884 162.526 421.884C161.422 421.884 160.526 420.988 160.526 419.884C160.526 418.779 161.422 417.884 162.526 417.884C163.631 417.884 164.526 418.779 164.526 419.884ZM162.526 437.884C163.631 437.884 164.526 436.988 164.526 435.884C164.526 434.779 163.631 433.884 162.526 433.884C161.422 433.884 160.526 434.779 160.526 435.884C160.526 436.988 161.422 437.884 162.526 437.884ZM178.526 437.884C179.631 437.884 180.526 436.988 180.526 435.884C180.526 434.779 179.631 433.884 178.526 433.884C177.422 433.884 176.526 434.779 176.526 435.884C176.526 436.988 177.422 437.884 178.526 437.884ZM196.526 435.884C196.526 436.988 195.631 437.884 194.526 437.884C193.422 437.884 192.526 436.988 192.526 435.884C192.526 434.779 193.422 433.884 194.526 433.884C195.631 433.884 196.526 434.779 196.526 435.884ZM210.526 437.884C211.631 437.884 212.526 436.988 212.526 435.884C212.526 434.779 211.631 433.884 210.526 433.884C209.422 433.884 208.526 434.779 208.526 435.884C208.526 436.988 209.422 437.884 210.526 437.884ZM228.526 435.884C228.526 436.988 227.631 437.884 226.526 437.884C225.422 437.884 224.526 436.988 224.526 435.884C224.526 434.779 225.422 433.884 226.526 433.884C227.631 433.884 228.526 434.779 228.526 435.884ZM242.526 437.884C243.631 437.884 244.526 436.988 244.526 435.884C244.526 434.779 243.631 433.884 242.526 433.884C241.422 433.884 240.526 434.779 240.526 435.884C240.526 436.988 241.422 437.884 242.526 437.884ZM178.526 421.884C179.631 421.884 180.526 420.988 180.526 419.884C180.526 418.779 179.631 417.884 178.526 417.884C177.422 417.884 176.526 418.779 176.526 419.884C176.526 420.988 177.422 421.884 178.526 421.884ZM196.526 419.884C196.526 420.988 195.631 421.884 194.526 421.884C193.422 421.884 192.526 420.988 192.526 419.884C192.526 418.779 193.422 417.884 194.526 417.884C195.631 417.884 196.526 418.779 196.526 419.884ZM210.526 421.884C211.631 421.884 212.526 420.988 212.526 419.884C212.526 418.779 211.631 417.884 210.526 417.884C209.422 417.884 208.526 418.779 208.526 419.884C208.526 420.988 209.422 421.884 210.526 421.884ZM228.526 419.884C228.526 420.988 227.631 421.884 226.526 421.884C225.422 421.884 224.526 420.988 224.526 419.884C224.526 418.779 225.422 417.884 226.526 417.884C227.631 417.884 228.526 418.779 228.526 419.884ZM242.526 421.884C243.631 421.884 244.526 420.988 244.526 419.884C244.526 418.779 243.631 417.884 242.526 417.884C241.422 417.884 240.526 418.779 240.526 419.884C240.526 420.988 241.422 421.884 242.526 421.884ZM58.5263 437.884C59.6309 437.884 60.5263 436.988 60.5263 435.884C60.5263 434.779 59.6309 433.884 58.5263 433.884C57.4217 433.884 56.5263 434.779 56.5263 435.884C56.5263 436.988 57.4217 437.884 58.5263 437.884ZM74.5263 437.884C75.6309 437.884 76.5263 436.988 76.5263 435.884C76.5263 434.779 75.6309 433.884 74.5263 433.884C73.4217 433.884 72.5263 434.779 72.5263 435.884C72.5263 436.988 73.4217 437.884 74.5263 437.884ZM92.5263 435.884C92.5263 436.988 91.6309 437.884 90.5263 437.884C89.4217 437.884 88.5263 436.988 88.5263 435.884C88.5263 434.779 89.4217 433.884 90.5263 433.884C91.6309 433.884 92.5263 434.779 92.5263 435.884ZM106.526 437.884C107.631 437.884 108.526 436.988 108.526 435.884C108.526 434.779 107.631 433.884 106.526 433.884C105.422 433.884 104.526 434.779 104.526 435.884C104.526 436.988 105.422 437.884 106.526 437.884ZM124.526 435.884C124.526 436.988 123.631 437.884 122.526 437.884C121.422 437.884 120.526 436.988 120.526 435.884C120.526 434.779 121.422 433.884 122.526 433.884C123.631 433.884 124.526 434.779 124.526 435.884ZM138.526 437.884C139.631 437.884 140.526 436.988 140.526 435.884C140.526 434.779 139.631 433.884 138.526 433.884C137.422 433.884 136.526 434.779 136.526 435.884C136.526 436.988 137.422 437.884 138.526 437.884ZM58.5263 421.884C59.6309 421.884 60.5263 420.988 60.5263 419.884C60.5263 418.779 59.6309 417.884 58.5263 417.884C57.4217 417.884 56.5263 418.779 56.5263 419.884C56.5263 420.988 57.4217 421.884 58.5263 421.884ZM68.5263 451.884C68.5263 452.988 67.6309 453.884 66.5263 453.884C65.4217 453.884 64.5263 452.988 64.5263 451.884C64.5263 450.779 65.4217 449.884 66.5263 449.884C67.6309 449.884 68.5263 450.779 68.5263 451.884ZM66.5263 469.884C67.6309 469.884 68.5263 468.988 68.5263 467.884C68.5263 466.779 67.6309 465.884 66.5263 465.884C65.4217 465.884 64.5263 466.779 64.5263 467.884C64.5263 468.988 65.4217 469.884 66.5263 469.884ZM82.5263 469.884C83.6309 469.884 84.5263 468.988 84.5263 467.884C84.5263 466.779 83.6309 465.884 82.5263 465.884C81.4217 465.884 80.5263 466.779 80.5263 467.884C80.5263 468.988 81.4217 469.884 82.5263 469.884ZM100.526 467.884C100.526 468.988 99.6309 469.884 98.5263 469.884C97.4217 469.884 96.5263 468.988 96.5263 467.884C96.5263 466.779 97.4217 465.884 98.5263 465.884C99.6309 465.884 100.526 466.779 100.526 467.884ZM114.526 469.884C115.631 469.884 116.526 468.988 116.526 467.884C116.526 466.779 115.631 465.884 114.526 465.884C113.422 465.884 112.526 466.779 112.526 467.884C112.526 468.988 113.422 469.884 114.526 469.884ZM132.526 467.884C132.526 468.988 131.631 469.884 130.526 469.884C129.422 469.884 128.526 468.988 128.526 467.884C128.526 466.779 129.422 465.884 130.526 465.884C131.631 465.884 132.526 466.779 132.526 467.884ZM146.526 469.884C147.631 469.884 148.526 468.988 148.526 467.884C148.526 466.779 147.631 465.884 146.526 465.884C145.422 465.884 144.526 466.779 144.526 467.884C144.526 468.988 145.422 469.884 146.526 469.884ZM82.5263 453.884C83.6309 453.884 84.5263 452.988 84.5263 451.884C84.5263 450.779 83.6309 449.884 82.5263 449.884C81.4217 449.884 80.5263 450.779 80.5263 451.884C80.5263 452.988 81.4217 453.884 82.5263 453.884ZM100.526 451.884C100.526 452.988 99.6309 453.884 98.5263 453.884C97.4217 453.884 96.5263 452.988 96.5263 451.884C96.5263 450.779 97.4217 449.884 98.5263 449.884C99.6309 449.884 100.526 450.779 100.526 451.884ZM114.526 453.884C115.631 453.884 116.526 452.988 116.526 451.884C116.526 450.779 115.631 449.884 114.526 449.884C113.422 449.884 112.526 450.779 112.526 451.884C112.526 452.988 113.422 453.884 114.526 453.884ZM132.526 451.884C132.526 452.988 131.631 453.884 130.526 453.884C129.422 453.884 128.526 452.988 128.526 451.884C128.526 450.779 129.422 449.884 130.526 449.884C131.631 449.884 132.526 450.779 132.526 451.884ZM146.526 453.884C147.631 453.884 148.526 452.988 148.526 451.884C148.526 450.779 147.631 449.884 146.526 449.884C145.422 449.884 144.526 450.779 144.526 451.884C144.526 452.988 145.422 453.884 146.526 453.884ZM74.5263 421.884C75.6309 421.884 76.5263 420.988 76.5263 419.884C76.5263 418.779 75.6309 417.884 74.5263 417.884C73.4217 417.884 72.5263 418.779 72.5263 419.884C72.5263 420.988 73.4217 421.884 74.5263 421.884ZM164.526 451.884C164.526 452.988 163.631 453.884 162.526 453.884C161.422 453.884 160.526 452.988 160.526 451.884C160.526 450.779 161.422 449.884 162.526 449.884C163.631 449.884 164.526 450.779 164.526 451.884ZM162.526 469.884C163.631 469.884 164.526 468.988 164.526 467.884C164.526 466.779 163.631 465.884 162.526 465.884C161.422 465.884 160.526 466.779 160.526 467.884C160.526 468.988 161.422 469.884 162.526 469.884ZM178.526 469.884C179.631 469.884 180.526 468.988 180.526 467.884C180.526 466.779 179.631 465.884 178.526 465.884C177.422 465.884 176.526 466.779 176.526 467.884C176.526 468.988 177.422 469.884 178.526 469.884ZM196.526 467.884C196.526 468.988 195.631 469.884 194.526 469.884C193.422 469.884 192.526 468.988 192.526 467.884C192.526 466.779 193.422 465.884 194.526 465.884C195.631 465.884 196.526 466.779 196.526 467.884ZM210.526 469.884C211.631 469.884 212.526 468.988 212.526 467.884C212.526 466.779 211.631 465.884 210.526 465.884C209.422 465.884 208.526 466.779 208.526 467.884C208.526 468.988 209.422 469.884 210.526 469.884ZM228.526 467.884C228.526 468.988 227.631 469.884 226.526 469.884C225.422 469.884 224.526 468.988 224.526 467.884C224.526 466.779 225.422 465.884 226.526 465.884C227.631 465.884 228.526 466.779 228.526 467.884ZM242.526 469.884C243.631 469.884 244.526 468.988 244.526 467.884C244.526 466.779 243.631 465.884 242.526 465.884C241.422 465.884 240.526 466.779 240.526 467.884C240.526 468.988 241.422 469.884 242.526 469.884ZM178.526 453.884C179.631 453.884 180.526 452.988 180.526 451.884C180.526 450.779 179.631 449.884 178.526 449.884C177.422 449.884 176.526 450.779 176.526 451.884C176.526 452.988 177.422 453.884 178.526 453.884ZM196.526 451.884C196.526 452.988 195.631 453.884 194.526 453.884C193.422 453.884 192.526 452.988 192.526 451.884C192.526 450.779 193.422 449.884 194.526 449.884C195.631 449.884 196.526 450.779 196.526 451.884ZM210.526 453.884C211.631 453.884 212.526 452.988 212.526 451.884C212.526 450.779 211.631 449.884 210.526 449.884C209.422 449.884 208.526 450.779 208.526 451.884C208.526 452.988 209.422 453.884 210.526 453.884ZM228.526 451.884C228.526 452.988 227.631 453.884 226.526 453.884C225.422 453.884 224.526 452.988 224.526 451.884C224.526 450.779 225.422 449.884 226.526 449.884C227.631 449.884 228.526 450.779 228.526 451.884ZM242.526 453.884C243.631 453.884 244.526 452.988 244.526 451.884C244.526 450.779 243.631 449.884 242.526 449.884C241.422 449.884 240.526 450.779 240.526 451.884C240.526 452.988 241.422 453.884 242.526 453.884ZM90.5263 421.884C91.6309 421.884 92.5263 420.988 92.5263 419.884C92.5263 418.779 91.6309 417.884 90.5263 417.884C89.4217 417.884 88.5263 418.779 88.5263 419.884C88.5263 420.988 89.4217 421.884 90.5263 421.884ZM108.526 419.884C108.526 420.988 107.631 421.884 106.526 421.884C105.422 421.884 104.526 420.988 104.526 419.884C104.526 418.779 105.422 417.884 106.526 417.884C107.631 417.884 108.526 418.779 108.526 419.884ZM122.526 421.884C123.631 421.884 124.526 420.988 124.526 419.884C124.526 418.779 123.631 417.884 122.526 417.884C121.422 417.884 120.526 418.779 120.526 419.884C120.526 420.988 121.422 421.884 122.526 421.884ZM140.526 419.884C140.526 420.988 139.631 421.884 138.526 421.884C137.422 421.884 136.526 420.988 136.526 419.884C136.526 418.779 137.422 417.884 138.526 417.884C139.631 417.884 140.526 418.779 140.526 419.884Z" fill="#333333"/>
<path fill-rule="evenodd" clip-rule="evenodd" d="M164.526 483.884C164.526 484.988 163.631 485.884 162.526 485.884C161.422 485.884 160.526 484.988 160.526 483.884C160.526 482.779 161.422 481.884 162.526 481.884C163.631 481.884 164.526 482.779 164.526 483.884ZM162.526 501.884C163.631 501.884 164.526 500.988 164.526 499.884C164.526 498.779 163.631 497.884 162.526 497.884C161.422 497.884 160.526 498.779 160.526 499.884C160.526 500.988 161.422 501.884 162.526 501.884ZM178.526 501.884C179.631 501.884 180.526 500.988 180.526 499.884C180.526 498.779 179.631 497.884 178.526 497.884C177.422 497.884 176.526 498.779 176.526 499.884C176.526 500.988 177.422 501.884 178.526 501.884ZM196.526 499.884C196.526 500.988 195.631 501.884 194.526 501.884C193.422 501.884 192.526 500.988 192.526 499.884C192.526 498.779 193.422 497.884 194.526 497.884C195.631 497.884 196.526 498.779 196.526 499.884ZM210.526 501.884C211.631 501.884 212.526 500.988 212.526 499.884C212.526 498.779 211.631 497.884 210.526 497.884C209.422 497.884 208.526 498.779 208.526 499.884C208.526 500.988 209.422 501.884 210.526 501.884ZM228.526 499.884C228.526 500.988 227.631 501.884 226.526 501.884C225.422 501.884 224.526 500.988 224.526 499.884C224.526 498.779 225.422 497.884 226.526 497.884C227.631 497.884 228.526 498.779 228.526 499.884ZM242.526 501.884C243.631 501.884 244.526 500.988 244.526 499.884C244.526 498.779 243.631 497.884 242.526 497.884C241.422 497.884 240.526 498.779 240.526 499.884C240.526 500.988 241.422 501.884 242.526 501.884ZM178.526 485.884C179.631 485.884 180.526 484.988 180.526 483.884C180.526 482.779 179.631 481.884 178.526 481.884C177.422 481.884 176.526 482.779 176.526 483.884C176.526 484.988 177.422 485.884 178.526 485.884ZM196.526 483.884C196.526 484.988 195.631 485.884 194.526 485.884C193.422 485.884 192.526 484.988 192.526 483.884C192.526 482.779 193.422 481.884 194.526 481.884C195.631 481.884 196.526 482.779 196.526 483.884ZM210.526 485.884C211.631 485.884 212.526 484.988 212.526 483.884C212.526 482.779 211.631 481.884 210.526 481.884C209.422 481.884 208.526 482.779 208.526 483.884C208.526 484.988 209.422 485.884 210.526 485.884ZM228.526 483.884C228.526 484.988 227.631 485.884 226.526 485.884C225.422 485.884 224.526 484.988 224.526 483.884C224.526 482.779 225.422 481.884 226.526 481.884C227.631 481.884 228.526 482.779 228.526 483.884ZM242.526 485.884C243.631 485.884 244.526 484.988 244.526 483.884C244.526 482.779 243.631 481.884 242.526 481.884C241.422 481.884 240.526 482.779 240.526 483.884C240.526 484.988 241.422 485.884 242.526 485.884ZM58.5263 501.884C59.6309 501.884 60.5263 500.988 60.5263 499.884C60.5263 498.779 59.6309 497.884 58.5263 497.884C57.4217 497.884 56.5263 498.779 56.5263 499.884C56.5263 500.988 57.4217 501.884 58.5263 501.884ZM74.5263 501.884C75.6309 501.884 76.5263 500.988 76.5263 499.884C76.5263 498.779 75.6309 497.884 74.5263 497.884C73.4217 497.884 72.5263 498.779 72.5263 499.884C72.5263 500.988 73.4217 501.884 74.5263 501.884ZM92.5263 499.884C92.5263 500.988 91.6309 501.884 90.5263 501.884C89.4217 501.884 88.5263 500.988 88.5263 499.884C88.5263 498.779 89.4217 497.884 90.5263 497.884C91.6309 497.884 92.5263 498.779 92.5263 499.884ZM106.526 501.884C107.631 501.884 108.526 500.988 108.526 499.884C108.526 498.779 107.631 497.884 106.526 497.884C105.422 497.884 104.526 498.779 104.526 499.884C104.526 500.988 105.422 501.884 106.526 501.884ZM124.526 499.884C124.526 500.988 123.631 501.884 122.526 501.884C121.422 501.884 120.526 500.988 120.526 499.884C120.526 498.779 121.422 497.884 122.526 497.884C123.631 497.884 124.526 498.779 124.526 499.884ZM138.526 501.884C139.631 501.884 140.526 500.988 140.526 499.884C140.526 498.779 139.631 497.884 138.526 497.884C137.422 497.884 136.526 498.779 136.526 499.884C136.526 500.988 137.422 501.884 138.526 501.884ZM58.5263 485.884C59.6309 485.884 60.5263 484.988 60.5263 483.884C60.5263 482.779 59.6309 481.884 58.5263 481.884C57.4217 481.884 56.5263 482.779 56.5263 483.884C56.5263 484.988 57.4217 485.884 58.5263 485.884ZM68.5263 515.884C68.5263 516.988 67.6309 517.884 66.5263 517.884C65.4217 517.884 64.5263 516.988 64.5263 515.884C64.5263 514.779 65.4217 513.884 66.5263 513.884C67.6309 513.884 68.5263 514.779 68.5263 515.884ZM66.5263 533.884C67.6309 533.884 68.5263 532.988 68.5263 531.884C68.5263 530.779 67.6309 529.884 66.5263 529.884C65.4217 529.884 64.5263 530.779 64.5263 531.884C64.5263 532.988 65.4217 533.884 66.5263 533.884ZM82.5263 533.884C83.6309 533.884 84.5263 532.988 84.5263 531.884C84.5263 530.779 83.6309 529.884 82.5263 529.884C81.4217 529.884 80.5263 530.779 80.5263 531.884C80.5263 532.988 81.4217 533.884 82.5263 533.884ZM100.526 531.884C100.526 532.988 99.6309 533.884 98.5263 533.884C97.4217 533.884 96.5263 532.988 96.5263 531.884C96.5263 530.779 97.4217 529.884 98.5263 529.884C99.6309 529.884 100.526 530.779 100.526 531.884ZM114.526 533.884C115.631 533.884 116.526 532.988 116.526 531.884C116.526 530.779 115.631 529.884 114.526 529.884C113.422 529.884 112.526 530.779 112.526 531.884C112.526 532.988 113.422 533.884 114.526 533.884ZM132.526 531.884C132.526 532.988 131.631 533.884 130.526 533.884C129.422 533.884 128.526 532.988 128.526 531.884C128.526 530.779 129.422 529.884 130.526 529.884C131.631 529.884 132.526 530.779 132.526 531.884ZM146.526 533.884C147.631 533.884 148.526 532.988 148.526 531.884C148.526 530.779 147.631 529.884 146.526 529.884C145.422 529.884 144.526 530.779 144.526 531.884C144.526 532.988 145.422 533.884 146.526 533.884ZM82.5263 517.884C83.6309 517.884 84.5263 516.988 84.5263 515.884C84.5263 514.779 83.6309 513.884 82.5263 513.884C81.4217 513.884 80.5263 514.779 80.5263 515.884C80.5263 516.988 81.4217 517.884 82.5263 517.884ZM100.526 515.884C100.526 516.988 99.6309 517.884 98.5263 517.884C97.4217 517.884 96.5263 516.988 96.5263 515.884C96.5263 514.779 97.4217 513.884 98.5263 513.884C99.6309 513.884 100.526 514.779 100.526 515.884ZM114.526 517.884C115.631 517.884 116.526 516.988 116.526 515.884C116.526 514.779 115.631 513.884 114.526 513.884C113.422 513.884 112.526 514.779 112.526 515.884C112.526 516.988 113.422 517.884 114.526 517.884ZM132.526 515.884C132.526 516.988 131.631 517.884 130.526 517.884C129.422 517.884 128.526 516.988 128.526 515.884C128.526 514.779 129.422 513.884 130.526 513.884C131.631 513.884 132.526 514.779 132.526 515.884ZM146.526 517.884C147.631 517.884 148.526 516.988 148.526 515.884C148.526 514.779 147.631 513.884 146.526 513.884C145.422 513.884 144.526 514.779 144.526 515.884C144.526 516.988 145.422 517.884 146.526 517.884ZM74.5263 485.884C75.6309 485.884 76.5263 484.988 76.5263 483.884C76.5263 482.779 75.6309 481.884 74.5263 481.884C73.4217 481.884 72.5263 482.779 72.5263 483.884C72.5263 484.988 73.4217 485.884 74.5263 485.884ZM164.526 515.884C164.526 516.988 163.631 517.884 162.526 517.884C161.422 517.884 160.526 516.988 160.526 515.884C160.526 514.779 161.422 513.884 162.526 513.884C163.631 513.884 164.526 514.779 164.526 515.884ZM162.526 533.884C163.631 533.884 164.526 532.988 164.526 531.884C164.526 530.779 163.631 529.884 162.526 529.884C161.422 529.884 160.526 530.779 160.526 531.884C160.526 532.988 161.422 533.884 162.526 533.884ZM178.526 533.884C179.631 533.884 180.526 532.988 180.526 531.884C180.526 530.779 179.631 529.884 178.526 529.884C177.422 529.884 176.526 530.779 176.526 531.884C176.526 532.988 177.422 533.884 178.526 533.884ZM196.526 531.884C196.526 532.988 195.631 533.884 194.526 533.884C193.422 533.884 192.526 532.988 192.526 531.884C192.526 530.779 193.422 529.884 194.526 529.884C195.631 529.884 196.526 530.779 196.526 531.884ZM210.526 533.884C211.631 533.884 212.526 532.988 212.526 531.884C212.526 530.779 211.631 529.884 210.526 529.884C209.422 529.884 208.526 530.779 208.526 531.884C208.526 532.988 209.422 533.884 210.526 533.884ZM228.526 531.884C228.526 532.988 227.631 533.884 226.526 533.884C225.422 533.884 224.526 532.988 224.526 531.884C224.526 530.779 225.422 529.884 226.526 529.884C227.631 529.884 228.526 530.779 228.526 531.884ZM242.526 533.884C243.631 533.884 244.526 532.988 244.526 531.884C244.526 530.779 243.631 529.884 242.526 529.884C241.422 529.884 240.526 530.779 240.526 531.884C240.526 532.988 241.422 533.884 242.526 533.884ZM178.526 517.884C179.631 517.884 180.526 516.988 180.526 515.884C180.526 514.779 179.631 513.884 178.526 513.884C177.422 513.884 176.526 514.779 176.526 515.884C176.526 516.988 177.422 517.884 178.526 517.884ZM196.526 515.884C196.526 516.988 195.631 517.884 194.526 517.884C193.422 517.884 192.526 516.988 192.526 515.884C192.526 514.779 193.422 513.884 194.526 513.884C195.631 513.884 196.526 514.779 196.526 515.884ZM210.526 517.884C211.631 517.884 212.526 516.988 212.526 515.884C212.526 514.779 211.631 513.884 210.526 513.884C209.422 513.884 208.526 514.779 208.526 515.884C208.526 516.988 209.422 517.884 210.526 517.884ZM228.526 515.884C228.526 516.988 227.631 517.884 226.526 517.884C225.422 517.884 224.526 516.988 224.526 515.884C224.526 514.779 225.422 513.884 226.526 513.884C227.631 513.884 228.526 514.779 228.526 515.884ZM242.526 517.884C243.631 517.884 244.526 516.988 244.526 515.884C244.526 514.779 243.631 513.884 242.526 513.884C241.422 513.884 240.526 514.779 240.526 515.884C240.526 516.988 241.422 517.884 242.526 517.884ZM90.5263 485.884C91.6309 485.884 92.5263 484.988 92.5263 483.884C92.5263 482.779 91.6309 481.884 90.5263 481.884C89.4217 481.884 88.5263 482.779 88.5263 483.884C88.5263 484.988 89.4217 485.884 90.5263 485.884ZM108.526 483.884C108.526 484.988 107.631 485.884 106.526 485.884C105.422 485.884 104.526 484.988 104.526 483.884C104.526 482.779 105.422 481.884 106.526 481.884C107.631 481.884 108.526 482.779 108.526 483.884ZM122.526 485.884C123.631 485.884 124.526 484.988 124.526 483.884C124.526 482.779 123.631 481.884 122.526 481.884C121.422 481.884 120.526 482.779 120.526 483.884C120.526 484.988 121.422 485.884 122.526 485.884ZM140.526 483.884C140.526 484.988 139.631 485.884 138.526 485.884C137.422 485.884 136.526 484.988 136.526 483.884C136.526 482.779 137.422 481.884 138.526 481.884C139.631 481.884 140.526 482.779 140.526 483.884Z" fill="#333333"/>
</g>
<path fill-rule="evenodd" clip-rule="evenodd" d="M443 14C443 15.1046 442.105 16 441 16C439.895 16 439 15.1046 439 14C439 12.8954 439.895 12 441 12C442.105 12 443 12.8954 443 14ZM441 32C442.105 32 443 31.1046 443 30C443 28.8954 442.105 28 441 28C439.895 28 439 28.8954 439 30C439 31.1046 439.895 32 441 32ZM457 32C458.105 32 459 31.1046 459 30C459 28.8954 458.105 28 457 28C455.895 28 455 28.8954 455 30C455 31.1046 455.895 32 457 32ZM475 30C475 31.1046 474.105 32 473 32C471.895 32 471 31.1046 471 30C471 28.8954 471.895 28 473 28C474.105 28 475 28.8954 475 30ZM489 32C490.105 32 491 31.1046 491 30C491 28.8954 490.105 28 489 28C487.895 28 487 28.8954 487 30C487 31.1046 487.895 32 489 32ZM507 30C507 31.1046 506.105 32 505 32C503.895 32 503 31.1046 503 30C503 28.8954 503.895 28 505 28C506.105 28 507 28.8954 507 30ZM521 32C522.105 32 523 31.1046 523 30C523 28.8954 522.105 28 521 28C519.895 28 519 28.8954 519 30C519 31.1046 519.895 32 521 32ZM457 16C458.105 16 459 15.1046 459 14C459 12.8954 458.105 12 457 12C455.895 12 455 12.8954 455 14C455 15.1046 455.895 16 457 16ZM475 14C475 15.1046 474.105 16 473 16C471.895 16 471 15.1046 471 14C471 12.8954 471.895 12 473 12C474.105 12 475 12.8954 475 14ZM489 16C490.105 16 491 15.1046 491 14C491 12.8954 490.105 12 489 12C487.895 12 487 12.8954 487 14C487 15.1046 487.895 16 489 16ZM507 14C507 15.1046 506.105 16 505 16C503.895 16 503 15.1046 503 14C503 12.8954 503.895 12 505 12C506.105 12 507 12.8954 507 14ZM521 16C522.105 16 523 15.1046 523 14C523 12.8954 522.105 12 521 12C519.895 12 519 12.8954 519 14C519 15.1046 519.895 16 521 16ZM337 32C338.105 32 339 31.1046 339 30C339 28.8954 338.105 28 337 28C335.895 28 335 28.8954 335 30C335 31.1046 335.895 32 337 32ZM353 32C354.105 32 355 31.1046 355 30C355 28.8954 354.105 28 353 28C351.895 28 351 28.8954 351 30C351 31.1046 351.895 32 353 32ZM371 30C371 31.1046 370.105 32 369 32C367.895 32 367 31.1046 367 30C367 28.8954 367.895 28 369 28C370.105 28 371 28.8954 371 30ZM385 32C386.105 32 387 31.1046 387 30C387 28.8954 386.105 28 385 28C383.895 28 383 28.8954 383 30C383 31.1046 383.895 32 385 32ZM403 30C403 31.1046 402.105 32 401 32C399.895 32 399 31.1046 399 30C399 28.8954 399.895 28 401 28C402.105 28 403 28.8954 403 30ZM417 32C418.105 32 419 31.1046 419 30C419 28.8954 418.105 28 417 28C415.895 28 415 28.8954 415 30C415 31.1046 415.895 32 417 32ZM337 16C338.105 16 339 15.1046 339 14C339 12.8954 338.105 12 337 12C335.895 12 335 12.8954 335 14C335 15.1046 335.895 16 337 16ZM347 46C347 47.1046 346.105 48 345 48C343.895 48 343 47.1046 343 46C343 44.8954 343.895 44 345 44C346.105 44 347 44.8954 347 46ZM345 64C346.105 64 347 63.1046 347 62C347 60.8954 346.105 60 345 60C343.895 60 343 60.8954 343 62C343 63.1046 343.895 64 345 64ZM361 64C362.105 64 363 63.1046 363 62C363 60.8954 362.105 60 361 60C359.895 60 359 60.8954 359 62C359 63.1046 359.895 64 361 64ZM379 62C379 63.1046 378.105 64 377 64C375.895 64 375 63.1046 375 62C375 60.8954 375.895 60 377 60C378.105 60 379 60.8954 379 62ZM393 64C394.105 64 395 63.1046 395 62C395 60.8954 394.105 60 393 60C391.895 60 391 60.8954 391 62C391 63.1046 391.895 64 393 64ZM411 62C411 63.1046 410.105 64 409 64C407.895 64 407 63.1046 407 62C407 60.8954 407.895 60 409 60C410.105 60 411 60.8954 411 62ZM425 64C426.105 64 427 63.1046 427 62C427 60.8954 426.105 60 425 60C423.895 60 423 60.8954 423 62C423 63.1046 423.895 64 425 64ZM361 48C362.105 48 363 47.1046 363 46C363 44.8954 362.105 44 361 44C359.895 44 359 44.8954 359 46C359 47.1046 359.895 48 361 48ZM379 46C379 47.1046 378.105 48 377 48C375.895 48 375 47.1046 375 46C375 44.8954 375.895 44 377 44C378.105 44 379 44.8954 379 46ZM393 48C394.105 48 395 47.1046 395 46C395 44.8954 394.105 44 393 44C391.895 44 391 44.8954 391 46C391 47.1046 391.895 48 393 48ZM411 46C411 47.1046 410.105 48 409 48C407.895 48 407 47.1046 407 46C407 44.8954 407.895 44 409 44C410.105 44 411 44.8954 411 46ZM425 48C426.105 48 427 47.1046 427 46C427 44.8954 426.105 44 425 44C423.895 44 423 44.8954 423 46C423 47.1046 423.895 48 425 48ZM353 16C354.105 16 355 15.1046 355 14C355 12.8954 354.105 12 353 12C351.895 12 351 12.8954 351 14C351 15.1046 351.895 16 353 16ZM443 46C443 47.1046 442.105 48 441 48C439.895 48 439 47.1046 439 46C439 44.8954 439.895 44 441 44C442.105 44 443 44.8954 443 46ZM441 64C442.105 64 443 63.1046 443 62C443 60.8954 442.105 60 441 60C439.895 60 439 60.8954 439 62C439 63.1046 439.895 64 441 64ZM457 64C458.105 64 459 63.1046 459 62C459 60.8954 458.105 60 457 60C455.895 60 455 60.8954 455 62C455 63.1046 455.895 64 457 64ZM475 62C475 63.1046 474.105 64 473 64C471.895 64 471 63.1046 471 62C471 60.8954 471.895 60 473 60C474.105 60 475 60.8954 475 62ZM489 64C490.105 64 491 63.1046 491 62C491 60.8954 490.105 60 489 60C487.895 60 487 60.8954 487 62C487 63.1046 487.895 64 489 64ZM507 62C507 63.1046 506.105 64 505 64C503.895 64 503 63.1046 503 62C503 60.8954 503.895 60 505 60C506.105 60 507 60.8954 507 62ZM521 64C522.105 64 523 63.1046 523 62C523 60.8954 522.105 60 521 60C519.895 60 519 60.8954 519 62C519 63.1046 519.895 64 521 64ZM457 48C458.105 48 459 47.1046 459 46C459 44.8954 458.105 44 457 44C455.895 44 455 44.8954 455 46C455 47.1046 455.895 48 457 48ZM475 46C475 47.1046 474.105 48 473 48C471.895 48 471 47.1046 471 46C471 44.8954 471.895 44 473 44C474.105 44 475 44.8954 475 46ZM489 48C490.105 48 491 47.1046 491 46C491 44.8954 490.105 44 489 44C487.895 44 487 44.8954 487 46C487 47.1046 487.895 48 489 48ZM507 46C507 47.1046 506.105 48 505 48C503.895 48 503 47.1046 503 46C503 44.8954 503.895 44 505 44C506.105 44 507 44.8954 507 46ZM521 48C522.105 48 523 47.1046 523 46C523 44.8954 522.105 44 521 44C519.895 44 519 44.8954 519 46C519 47.1046 519.895 48 521 48ZM369 16C370.105 16 371 15.1046 371 14C371 12.8954 370.105 12 369 12C367.895 12 367 12.8954 367 14C367 15.1046 367.895 16 369 16ZM387 14C387 15.1046 386.105 16 385 16C383.895 16 383 15.1046 383 14C383 12.8954 383.895 12 385 12C386.105 12 387 12.8954 387 14ZM401 16C402.105 16 403 15.1046 403 14C403 12.8954 402.105 12 401 12C399.895 12 399 12.8954 399 14C399 15.1046 399.895 16 401 16ZM419 14C419 15.1046 418.105 16 417 16C415.895 16 415 15.1046 415 14C415 12.8954 415.895 12 417 12C418.105 12 419 12.8954 419 14Z" fill="#333333"/>
<rect x="62" y="312" width="370" height="128" rx="20" fill="#44AFE0"/>
<g filter="url(#filter0_d)">
<rect x="95" y="40" width="370" height="464" rx="30" fill="white"/>
</g>
<rect x="199" y="121" width="107" height="42" rx="8" fill="#C1E4F4"/>
<rect x="199" y="177" width="217" height="16" rx="4" fill="#C1E4F4"/>
<rect x="199" y="201" width="176" height="16" rx="4" fill="#C1E4F4"/>
<rect x="254" y="329" width="107" height="42" rx="8" fill="#C1E4F4"/>
<rect x="144" y="385" width="217" height="16" rx="4" fill="#C1E4F4"/>
<rect x="185" y="409" width="176" height="16" rx="4" fill="#C1E4F4"/>
<path d="M392 80C414.091 80 432 62.0914 432 40C432 17.9086 414.091 0 392 0C369.909 0 352 17.9086 352 40C352 62.0914 369.909 80 392 80Z" fill="#ED3833"/>
<path fill-rule="evenodd" clip-rule="evenodd" d="M401.563 28.3721H383.437C381.542 28.3721 380 29.9308 380 31.8473V43.0631C380 44.9753 381.535 46.5315 383.425 46.5383V51.6279L390.659 46.5383H401.563C403.458 46.5383 405 44.9793 405 43.0631V31.8473C405 29.9308 403.458 28.3721 401.563 28.3721ZM403.535 43.063C403.535 44.1624 402.65 45.0571 401.563 45.0571H390.199L384.89 48.7929V45.0571H383.437C382.35 45.0571 381.465 44.1624 381.465 43.063V31.8472C381.465 30.7475 382.35 29.8531 383.437 29.8531H401.563C402.65 29.8531 403.535 30.7475 403.535 31.8472V43.063ZM398.309 33.6055H386.691V35.0866H398.309V33.6055ZM386.691 36.7651H398.309V38.2462H386.691V36.7651ZM398.309 39.9247H386.691V41.4059H398.309V39.9247Z" fill="white"/>
<defs>
<filter id="filter0_d" x="55" y="20" width="450" height="544" filterUnits="userSpaceOnUse" color-interpolation-filters="sRGB">
<feFlood flood-opacity="0" result="BackgroundImageFix"/>
<feColorMatrix in="SourceAlpha" type="matrix" values="0 0 0 0 0 0 0 0 0 0 0 0 0 0 0 0 0 0 127 0" result="hardAlpha"/>
<feOffset dy="20"/>
<feGaussianBlur stdDeviation="20"/>
<feColorMatrix type="matrix" values="0 0 0 0 0 0 0 0 0 0.152548 0 0 0 0 0.222284 0 0 0 0.100402 0"/>
<feBlend mode="normal" in2="BackgroundImageFix" result="effect1_dropShadow"/>
<feBlend mode="normal" in="SourceGraphic" in2="effect1_dropShadow" result="shape"/>
</filter>
</defs>
</svg>
