<svg width="56" height="48" viewBox="0 0 56 48" fill="none" xmlns="http://www.w3.org/2000/svg">
<g clip-path="url(#clip0)">
<path d="M25.2942 3.2002H27.1516V4.8002H25.2942V3.2002Z" fill="#F2622B"/>
<path d="M29.009 3.2002H30.8664V4.8002H29.009V3.2002Z" fill="#F2622B"/>
<path d="M25.2942 6.3999H27.1516V7.9999H25.2942V6.3999Z" fill="#F2622B"/>
<path d="M29.009 6.3999H30.8664V7.9999H29.009V6.3999Z" fill="#F2622B"/>
<path d="M25.2942 9.6001H27.1516V11.2001H25.2942V9.6001Z" fill="#F2622B"/>
<path d="M29.009 9.6001H30.8664V11.2001H29.009V9.6001Z" fill="#F2622B"/>
<path d="M25.2942 12.7998H27.1516V14.3998H25.2942V12.7998Z" fill="#F2622B"/>
<path d="M29.009 12.7998H30.8664V14.3998H29.009V12.7998Z" fill="#F2622B"/>
<path d="M25.2942 16H27.1516V17.6H25.2942V16Z" fill="#F2622B"/>
<path d="M29.009 16H30.8664V17.6H29.009V16Z" fill="#F2622B"/>
<path d="M36.4385 16H38.2959V17.6H36.4385V16Z" fill="#F2622B"/>
<path d="M36.4385 19.2002H38.2959V20.8002H36.4385V19.2002Z" fill="#F2622B"/>
<path d="M36.4385 22.3999H38.2959V23.9999H36.4385V22.3999Z" fill="#F2622B"/>
<path d="M36.4385 25.6001H38.2959V27.2001H36.4385V25.6001Z" fill="#F2622B"/>
<path d="M17.8647 16H19.7221V17.6H17.8647V16Z" fill="#F2622B"/>
<path d="M17.8647 19.2002H19.7221V20.8002H17.8647V19.2002Z" fill="#F2622B"/>
<path d="M17.8647 22.3999H19.7221V23.9999H17.8647V22.3999Z" fill="#F2622B"/>
<path d="M17.8647 25.6001H19.7221V27.2001H17.8647V25.6001Z" fill="#F2622B"/>
<path d="M55.0122 8H54.0835V5.6C54.0835 5.1582 53.6677 4.8 53.1548 4.8H42.9393C42.4264 4.8 42.0106 5.1582 42.0106 5.6V8H41.0819C40.5691 8 40.1532 8.3582 40.1532 8.8V12.8H38.2959V5.6C38.2959 5.1582 37.88 4.8 37.3672 4.8H34.5811V0.8C34.5811 0.358203 34.1653 0 33.6524 0H22.5082C21.9953 0 21.5795 0.358203 21.5795 0.8V4.8H18.7935C18.2806 4.8 17.8648 5.1582 17.8648 5.6V12.8H16.0074V8.8C16.0074 8.3582 15.5916 8 15.0787 8H14.15V5.6C14.15 5.1582 13.7342 4.8 13.2213 4.8H3.00579C2.49292 4.8 2.0771 5.1582 2.0771 5.6V8H1.14841C0.635549 8 0.219727 8.3582 0.219727 8.8V26.4H2.0771V9.6H14.15V20H16.0074V14.4H21.5795V19.2H23.4369V1.6H32.7237V19.2H34.5811V14.4H40.1532V24H42.0106V9.6H54.0835V26.4H55.9409V8.8C55.9409 8.3582 55.5251 8 55.0122 8ZM3.93447 8V6.4H12.2926V8H3.93447ZM19.7221 12.8V6.4H21.5795V12.8H19.7221ZM34.5811 12.8V6.4H36.4385V12.8H34.5811ZM43.868 8V6.4H52.2262V8H43.868Z" fill="#F2622B"/>
<path d="M43.8679 11.2002H47.5827V12.8002H43.8679V11.2002Z" fill="#F2622B"/>
<path d="M49.4402 11.2002H53.1549V12.8002H49.4402V11.2002Z" fill="#F2622B"/>
<path d="M43.8679 14.3999H47.5827V15.9999H43.8679V14.3999Z" fill="#F2622B"/>
<path d="M49.4402 14.3999H53.1549V15.9999H49.4402V14.3999Z" fill="#F2622B"/>
<path d="M51.2975 27.2002H51.2734C51.8879 26.5119 52.2225 25.6686 52.2262 24.8002V23.2002C52.2262 20.9912 50.147 19.2002 47.5827 19.2002C45.0184 19.2002 42.9393 20.9912 42.9393 23.2002V24.8002C42.9429 25.6686 43.2776 26.5119 43.892 27.2002H43.868C41.812 27.199 39.9519 28.2518 39.137 29.8779L37.8315 32.2713L36.5315 29.8932C35.7216 28.2588 33.8574 27.199 31.7951 27.2002H31.771C32.3855 26.5119 32.7201 25.6686 32.7237 24.8002V23.2002C32.7237 20.9912 30.6446 19.2002 28.0803 19.2002C25.516 19.2002 23.4369 20.9912 23.4369 23.2002V24.8002C23.4405 25.6686 23.7752 26.5119 24.3896 27.2002H24.3656C22.3155 27.2006 20.4608 28.2482 19.6432 29.8674L18.33 32.2674L17.0299 29.8865C16.2173 28.2549 14.3536 27.1979 12.2926 27.2002H12.2686C12.8831 26.5119 13.2177 25.6686 13.2213 24.8002V23.2002C13.2213 20.9912 11.1422 19.2002 8.5779 19.2002C6.01359 19.2002 3.93447 20.9912 3.93447 23.2002V24.8002C3.9381 25.6686 4.27275 26.5119 4.88719 27.2002H4.86316C2.29975 27.2029 0.222901 28.992 0.219727 31.2002V38.4002C0.219727 38.842 0.635549 39.2002 1.14841 39.2002H3.93447V46.4002H0.219727V48.0002H55.9409V46.4002H52.2262V39.2002H55.0122C55.5251 39.2002 55.9409 38.842 55.9409 38.4002V31.2002C55.9377 28.992 53.8609 27.2029 51.2975 27.2002ZM44.7967 24.8002V23.2002C44.7967 21.8748 46.0441 20.8002 47.5827 20.8002C49.1213 20.8002 50.3688 21.8748 50.3688 23.2002V24.8002C50.3688 26.1256 49.1213 27.2002 47.5827 27.2002C46.0441 27.2002 44.7967 26.1256 44.7967 24.8002ZM25.2943 24.8002V23.2002C25.2943 21.8748 26.5417 20.8002 28.0803 20.8002C29.6189 20.8002 30.8664 21.8748 30.8664 23.2002V24.8002C30.8664 26.1256 29.6189 27.2002 28.0803 27.2002C26.5417 27.2002 25.2943 26.1256 25.2943 24.8002ZM5.79184 24.8002V23.2002C5.79184 21.8748 7.03931 20.8002 8.5779 20.8002C10.1165 20.8002 11.364 21.8748 11.364 23.2002V24.8002C11.364 26.1256 10.1165 27.2002 8.5779 27.2002C7.03931 27.2002 5.79184 26.1256 5.79184 24.8002ZM9.50659 46.4002V38.4002H7.64922V46.4002H5.79184V31.2002H3.93447V37.6002H2.0771V31.2002C2.0771 29.8748 3.32457 28.8002 4.86316 28.8002H12.2926C13.6222 28.8018 14.8216 29.49 15.3349 30.5467L19.188 37.6002H16.5815L13.1284 31.6428C12.9388 31.3053 12.5031 31.1268 12.08 31.2123C11.6564 31.2982 11.359 31.6256 11.364 32.0002V46.4002H9.50659ZM20.9016 39.1682C20.9274 39.1607 20.9528 39.1521 20.9778 39.1428C21.0304 39.1264 21.0807 39.1061 21.1292 39.0818C21.1982 39.0424 21.2625 38.9971 21.3215 38.9467C21.3442 38.9256 21.3655 38.9033 21.3854 38.8803C21.4031 38.8639 21.4199 38.8467 21.4358 38.8291C21.4494 38.8092 21.4562 38.7873 21.4689 38.7674C21.482 38.7475 21.4911 38.7408 21.4997 38.7248L23.4369 34.9697V46.4002H13.2213V35.3889L15.1762 38.7576C15.3336 39.0291 15.6555 39.2002 16.0074 39.2002H20.6508C20.7356 39.1998 20.82 39.1889 20.9016 39.1682ZM29.009 46.4002V39.2002H27.1516V46.4002H25.2943V31.2002C25.2943 30.8221 24.9873 30.4959 24.5583 30.4174C24.1293 30.3389 23.6949 30.5299 23.5167 30.8756L20.6268 36.4756L19.3562 34.149L21.3369 30.5209C21.5922 30.0076 22.0171 29.5705 22.5594 29.2643C23.0945 28.9588 23.7235 28.7975 24.3656 28.8002H31.7951C33.1251 28.8025 34.3231 29.492 34.8355 30.549L36.8035 34.149L35.484 36.5658L32.6308 31.6428C32.4412 31.3053 32.0055 31.1268 31.5824 31.2123C31.1589 31.2982 30.8614 31.6256 30.8664 32.0002V46.4002H29.009ZM41.0021 38.7248L42.9393 34.9697V46.4002H32.7237V35.3889L34.6741 38.7576C34.6804 38.7689 34.6918 38.7779 34.699 38.7881C34.7063 38.7986 34.7113 38.8162 34.7203 38.8291C34.7398 38.8514 34.7607 38.8725 34.7825 38.8932C34.8024 38.9162 34.8233 38.9381 34.8459 38.9596C34.8818 38.9885 34.9203 39.015 34.9611 39.0393C34.987 39.0553 35.0101 39.0729 35.0373 39.0865C35.0845 39.1092 35.1343 39.1283 35.1856 39.1436C35.211 39.1514 35.2341 39.1627 35.2599 39.1689C35.3411 39.1889 35.4255 39.1994 35.5098 39.2002H40.1532C40.5205 39.2002 40.8529 39.0139 41.0021 38.7248ZM54.0835 37.6002H52.2262V30.4002H50.3688V46.4002H48.5114V38.4002H46.654V46.4002H44.7967V31.2002C44.7967 30.8221 44.4897 30.4959 44.0607 30.4174C43.6317 30.3389 43.1973 30.5299 43.0191 30.8756L39.5506 37.6002H36.9727L40.8257 30.5467C40.8303 30.5377 40.8339 30.5299 40.8375 30.5209C41.3567 29.4764 42.5489 28.7994 43.868 28.8002H51.2975C52.8361 28.8002 54.0835 29.8748 54.0835 31.2002V37.6002Z" fill="#F2622B"/>
<path d="M3.93457 11.2002H12.2927V12.8002H3.93457V11.2002Z" fill="#F2622B"/>
<path d="M3.93457 14.3999H12.2927V15.9999H3.93457V14.3999Z" fill="#F2622B"/>
</g>
<defs>
<clipPath id="clip0">
<rect width="55.7212" height="48" fill="white" transform="translate(0.219727)"/>
</clipPath>
</defs>
</svg>
