<svg width="48" height="48" viewBox="0 0 48 48" fill="none" xmlns="http://www.w3.org/2000/svg">
<g clip-path="url(#clip0)">
<path d="M40.9052 35.0145C41.4231 35.0145 41.8429 34.5947 41.8429 34.0768C41.8429 33.559 41.4231 33.1392 40.9052 33.1392C40.3873 33.1392 39.9675 33.559 39.9675 34.0768C39.9675 34.5947 40.3873 35.0145 40.9052 35.0145Z" fill="#F2622B"/>
<path d="M18.2301 48.0204C18.7469 47.9836 19.1361 47.5348 19.0993 47.018C19.0626 46.5012 18.6138 46.112 18.0969 46.1488C17.5801 46.1855 17.1909 46.6343 17.2277 47.1511C17.2645 47.668 17.7133 48.0571 18.2301 48.0204Z" fill="#F2622B"/>
<path d="M43.9575 30.0819L37.0138 24.1493C37.0062 24.1429 36.9986 24.1365 36.9908 24.1303L34.492 22.1292L46.1326 2.50847C46.366 2.1151 46.2814 1.61063 45.9326 1.31485C45.5837 1.01888 45.0722 1.01804 44.7224 1.31269L27.0625 16.1795L25.7291 15.1116L22.5566 7.24435C22.3799 6.80625 21.9047 6.5685 21.4479 6.68831C21.3857 6.70472 19.9095 7.10278 18.5137 8.23725C17.4821 9.07575 16.3405 10.4457 16.0463 12.5152C15.4161 12.2381 14.7293 12.0966 14.0266 12.1074C11.4066 12.1485 9.30099 14.2772 9.26893 16.8811C7.05549 17.3524 5.40587 19.3391 5.44262 21.6854C5.45105 22.2255 5.54921 22.7549 5.73015 23.2551C4.11334 24.0752 3.04299 25.7731 3.07224 27.6468C3.08424 28.4091 3.27821 29.1547 3.6293 29.8224C2.42996 30.7403 1.70987 32.1845 1.73424 33.737C1.75337 34.9632 2.23074 36.1126 3.05143 36.981C2.25849 37.874 1.81721 39.0378 1.83634 40.2644C1.85649 41.5559 2.3783 42.7622 3.30559 43.661C4.21421 44.5417 5.40559 45.0241 6.66774 45.024C6.87596 45.024 7.08381 45.0096 7.29034 44.9833C7.41737 45.7295 7.55846 46.4848 7.71362 47.249C7.8024 47.686 8.18659 48 8.63246 48H13.8694C14.3873 48 14.8071 47.5802 14.8071 47.0623C14.8071 46.5445 14.3873 46.1246 13.8694 46.1246H9.4029C8.32018 40.4921 8.03827 35.3871 8.56506 30.9391C9.00127 27.2559 9.99006 24.0158 11.5038 21.3086C14.0669 16.725 17.3041 15.2269 17.3328 15.2138C17.7065 15.0493 17.9308 14.6617 17.8872 14.2557C17.5261 10.8933 19.8848 9.36319 21.1573 8.78916L24.0814 16.0407C24.1416 16.19 24.2393 16.3213 24.3649 16.4219L35.8067 25.5847L42.7391 31.5076C44.2946 32.8367 44.8128 34.9992 44.0286 36.8889C43.5468 38.0499 42.6419 38.9538 41.4802 39.434C40.3187 39.9143 39.0394 39.9135 37.8786 39.4317L29.3704 35.901C29.1098 35.7928 28.8143 35.8079 28.566 35.9418C27.6327 36.445 26.5852 36.7651 25.5647 36.89C25.5341 36.8922 25.595 36.8849 25.5647 36.89C24.1849 37.0434 22.7279 36.8551 21.4071 36.307C19.3292 35.4447 17.7196 33.8214 16.8746 31.7361C16.0299 29.6512 16.0562 27.3645 16.9487 25.2973C17.154 24.8218 16.935 24.27 16.4595 24.0648C15.9842 23.8596 15.4322 24.0786 15.2269 24.554C14.1339 27.0858 14.1018 29.8866 15.1365 32.4403C16.1714 34.9946 18.143 36.9829 20.6882 38.0391C22.1677 38.6531 23.7397 38.9038 25.2901 38.7988C25.9156 39.5922 27.4577 41.9501 27.6636 46.1248H22.3564C21.8386 46.1248 21.4187 46.5446 21.4187 47.0625C21.4187 47.5803 21.8386 48.0002 22.3564 48.0002H28.6242C29.1421 48.0002 29.5619 47.5804 29.5619 47.0625C29.5619 42.7442 28.2881 39.9382 27.339 38.447C27.9229 38.2837 28.4961 38.0682 29.0517 37.7992L37.1597 41.164C38.7835 41.8379 40.5723 41.8389 42.1967 41.1673C43.8212 40.4957 45.0869 39.2315 45.7607 37.608C46.8576 34.965 46.1329 31.9405 43.9575 30.0819ZM6.70599 24.866C6.99718 25.1851 7.32952 25.4637 7.69402 25.6946C7.27993 27.1447 6.96812 28.6818 6.75737 30.2963C6.34055 30.1198 5.96349 29.8496 5.66434 29.5022C5.21284 28.978 4.95821 28.3086 4.94743 27.6173C4.92868 26.4196 5.64324 25.3392 6.70599 24.866ZM4.80905 31.2824C5.32112 31.7094 5.91821 32.0284 6.55731 32.2144C6.44734 33.6269 6.41049 35.0958 6.44668 36.6174C5.92927 36.5963 5.42771 36.4428 4.9899 36.1666C4.14109 35.6295 3.62499 34.7103 3.60924 33.7077C3.59415 32.7404 4.05146 31.8425 4.80905 31.2824ZM6.71631 43.1482C5.92871 43.1619 5.17834 42.8645 4.61087 42.3143C4.04321 41.7641 3.7238 41.0257 3.71143 40.2351C3.69859 39.4145 4.02268 38.64 4.59624 38.0773C5.20149 38.3478 5.8569 38.4904 6.52646 38.4958C6.61787 39.9943 6.77649 41.5402 7.00159 43.1301C6.90709 43.1405 6.81174 43.1467 6.71631 43.1482ZM8.30499 23.816C8.11918 23.6497 7.95352 23.4604 7.81374 23.2514C7.49827 22.7792 7.32671 22.2276 7.31781 21.6561C7.29568 20.2386 8.27912 19.0355 9.6084 18.7269C9.76102 19.1106 9.9624 19.4736 10.2082 19.807C10.1212 19.9519 10.0345 20.0986 9.94862 20.2495C9.31684 21.3591 8.76877 22.5501 8.30499 23.816ZM11.3691 18.0781C11.2954 17.9014 11.2383 17.7177 11.2003 17.5289C11.1649 17.3519 11.1455 17.17 11.1427 16.9884C11.1171 15.3565 12.424 14.0081 14.0559 13.9825C14.4916 13.9738 14.917 14.0632 15.3066 14.2377C14.3009 14.9208 12.8288 16.1299 11.3691 18.0781ZM34.5915 12.2926L35.5823 16.6161L33.6599 19.8564L32.3633 14.1995C32.3613 14.1908 32.3583 14.1828 32.3562 14.1743L34.5915 12.2926ZM36.9702 14.2769L36.2042 10.935L41.6955 6.31238L36.9702 14.2769ZM28.5548 17.3745L30.7446 15.531L31.7544 19.9368L28.5548 17.3745Z" fill="#F2622B"/>
<path d="M21.6042 23.4044C21.7132 23.3657 24.2861 22.479 25.5639 24.4251C25.744 24.6993 26.0432 24.8482 26.3486 24.8482C26.5252 24.8482 26.7037 24.7984 26.8623 24.6943C27.2952 24.41 27.4157 23.8287 27.1315 23.3958C25.4535 20.8403 22.3641 21.1306 20.9651 21.6413C20.48 21.8183 20.2314 22.3533 20.4063 22.8391C20.5811 23.325 21.1181 23.5772 21.6042 23.4044Z" fill="#F2622B"/>
<path d="M24.3125 5.62219L26.568 6.85575L27.8016 9.11137C27.966 9.41212 28.2815 9.59906 28.6242 9.59906C28.967 9.59906 29.2825 9.41212 29.4469 9.11137L30.6805 6.85575L32.936 5.62219C33.2367 5.45775 33.4238 5.14228 33.4238 4.79953C33.4238 4.45678 33.2367 4.14131 32.936 3.97687L30.6805 2.74331L29.4469 0.487687C29.2825 0.186938 28.967 0 28.6243 0C28.2816 0 27.9661 0.186938 27.8017 0.487687L26.5681 2.74331L24.3125 3.97687C24.0117 4.14131 23.8247 4.45678 23.8247 4.79953C23.8248 5.14228 24.0118 5.45775 24.3125 5.62219ZM27.7089 4.25681C27.8662 4.17075 27.9955 4.04147 28.0816 3.88416L28.6243 2.89181L29.167 3.88416C29.2531 4.04147 29.3825 4.17075 29.5398 4.25681L30.5321 4.79953L29.5398 5.34225C29.3825 5.42831 29.2531 5.55759 29.167 5.71491L28.6243 6.70725L28.0816 5.71491C27.9955 5.55759 27.8662 5.42831 27.7089 5.34225L26.7165 4.79953L27.7089 4.25681Z" fill="#F2622B"/>
<path d="M43.4892 19.6415C44.0071 19.6415 44.4269 19.2216 44.4269 18.7038V18.215H44.9156C45.4335 18.215 45.8533 17.7951 45.8533 17.2773C45.8533 16.7594 45.4335 16.3396 44.9156 16.3396H44.4269V15.8508C44.4269 15.333 44.0071 14.9131 43.4892 14.9131C42.9713 14.9131 42.5515 15.3329 42.5515 15.8508V16.3396H42.0627C41.5448 16.3396 41.125 16.7594 41.125 17.2773C41.125 17.7951 41.5448 18.215 42.0627 18.215H42.5515V18.7038C42.5516 19.2216 42.9713 19.6415 43.4892 19.6415Z" fill="#F2622B"/>
</g>
<defs>
<clipPath id="clip0">
<rect width="48" height="48" fill="white"/>
</clipPath>
</defs>
</svg>
