<svg width="18" height="14" viewBox="0 0 18 14" fill="none" xmlns="http://www.w3.org/2000/svg">
<path d="M15.4526 0.415039H2.54742C1.14293 0.415039 0 1.55797 0 2.96281V11.0368C0 12.4416 1.14293 13.5846 2.54742 13.5846H15.4526C16.8571 13.5846 18 12.4416 18 11.0368V2.96281C18 1.55797 16.8571 0.415039 15.4526 0.415039ZM6.53238 4.4682L3.85242 7.14816L6.23566 9.53141C6.44168 9.73742 6.44168 10.0714 6.23566 10.2771C6.03 10.4831 5.69602 10.4831 5.49 10.2771L2.73375 7.52082C2.52773 7.31481 2.52773 6.98117 2.73375 6.77516L5.78637 3.72254C5.99238 3.51652 6.32637 3.51652 6.53238 3.72254C6.73805 3.9282 6.73805 4.26219 6.53238 4.4682ZM10.8823 3.22754L8.09367 11.1233C7.99664 11.3982 7.69535 11.542 7.42078 11.445C7.14621 11.3479 7.00207 11.0466 7.0991 10.7721L9.8877 2.87633C9.98473 2.60176 10.2857 2.45762 10.5606 2.55465C10.8352 2.65168 10.9793 2.95297 10.8823 3.22754ZM15.2662 7.22445L12.2136 10.2771C12.0076 10.4831 11.6736 10.4831 11.4676 10.2771C11.262 10.0714 11.262 9.73742 11.4676 9.53141L14.1476 6.85145L11.7643 4.4682C11.5583 4.26219 11.5583 3.9282 11.7643 3.72254C11.97 3.51652 12.304 3.51652 12.51 3.72254L15.2662 6.47879C15.4723 6.6848 15.4723 7.01844 15.2662 7.22445Z" fill="white"/>
</svg>
