<svg width="16" height="16" viewBox="0 0 16 16" fill="none" xmlns="http://www.w3.org/2000/svg">
<path d="M7.25002 11.9822V1.5C7.25002 1.30109 7.32904 1.11032 7.46969 0.96967C7.61034 0.829018 7.80111 0.75 8.00002 0.75C8.19893 0.75 8.3897 0.829018 8.53035 0.96967C8.671 1.11032 8.75002 1.30109 8.75002 1.5V11.9822L8.00002 12.7322L7.25002 11.9822ZM8.53036 15.0303L13.0304 10.5303C13.171 10.3897 13.25 10.1989 13.25 10C13.25 9.80108 13.171 9.61031 13.0304 9.46966C12.8897 9.329 12.6989 9.24998 12.5 9.24998C12.3011 9.24998 12.1103 9.329 11.9697 9.46966L8.00002 13.4393L4.03036 9.46966C3.88971 9.329 3.69894 9.24998 3.50002 9.24998C3.3011 9.24998 3.11033 9.329 2.96968 9.46966C2.82902 9.61031 2.75 9.80108 2.75 10C2.75 10.1989 2.82902 10.3897 2.96968 10.5303L7.46968 15.0303C7.53932 15.1 7.622 15.1552 7.713 15.1929C7.80399 15.2306 7.90152 15.25 8.00002 15.25C8.09851 15.25 8.19604 15.2306 8.28704 15.1929C8.37804 15.1552 8.46072 15.1 8.53036 15.0303Z" fill="#ED3833"/>
</svg>
