<svg class="logo_mr" width="75" height="23" viewBox="0 0 75 23" fill="none" xmlns="http://www.w3.org/2000/svg">
      <path d="M14.1591 7.57861C13.4356 7.57861 12.8546 8.16483 12.8546 8.88309V18.3841C12.8546 18.3841 9.12077 14.6502 8.75108 14.27C8.50286 13.9954 8.14373 13.8158 7.73708 13.8158C7.3357 13.8158 6.97657 13.9901 6.72835 14.27H6.72307C6.35338 14.645 2.61951 18.3841 2.61951 18.3841V8.88309C2.61951 8.15955 2.03329 7.57861 1.30976 7.57861C0.586224 7.57861 0 8.16483 0 8.88309V21.5212C0 21.537 0.0158448 21.8486 0.0422512 21.9173C0.195408 22.5352 0.755224 22.9947 1.42067 22.9947C1.74282 22.9947 2.03329 22.8838 2.27095 22.7095C2.92583 22.2236 7.72651 17.3014 7.72651 17.3014C7.7318 17.3014 12.5325 22.2236 13.1874 22.7095C13.425 22.8838 13.7208 22.9947 14.0376 22.9947C14.7031 22.9947 15.2629 22.5352 15.4161 21.9173C15.4425 21.8486 15.4583 21.537 15.4583 21.5212V8.88309C15.4636 8.15955 14.8826 7.57861 14.1591 7.57861Z" fill="#565353"/>
      <path d="M56.3671 8.84097C56.3671 8.128 55.7915 7.55762 55.0838 7.55762C54.3708 7.55762 53.7952 8.13328 53.7952 8.84097V21.7114C53.7952 22.4244 54.3708 23.0001 55.0838 23.0001C55.7915 23.0001 56.3671 22.4244 56.3671 21.7114V8.84097Z" fill="#565353"/>
      <path d="M41.2468 15.2419C41.2468 16.5041 42.2714 17.5287 43.5336 17.5287C44.7958 17.5287 45.8204 16.5041 45.8204 15.2419C45.8204 13.9796 44.7958 12.9551 43.5336 12.9551C42.2714 12.9551 41.2468 13.9796 41.2468 15.2419Z" fill="#F2622B"/>
      <path d="M14.1591 7.57861C13.4356 7.57861 12.8546 8.16483 12.8546 8.88309V18.3841C12.8546 18.3841 9.12077 14.6502 8.75108 14.27C8.50286 13.9954 8.14373 13.8158 7.73708 13.8158C7.3357 13.8158 6.97657 13.9901 6.72835 14.27H6.72307C6.35338 14.645 2.61951 18.3841 2.61951 18.3841V8.88309C2.61951 8.15955 2.03329 7.57861 1.30976 7.57861C0.586224 7.57861 0 8.16483 0 8.88309V21.5212C0 21.537 0.0158448 21.8486 0.0422512 21.9173C0.195408 22.5352 0.755224 22.9947 1.42067 22.9947C1.74282 22.9947 2.03329 22.8838 2.27095 22.7095C2.92583 22.2236 7.72651 17.3014 7.72651 17.3014C7.7318 17.3014 12.5325 22.2236 13.1874 22.7095C13.425 22.8838 13.7208 22.9947 14.0376 22.9947C14.7031 22.9947 15.2629 22.5352 15.4161 21.9173C15.4425 21.8486 15.4583 21.537 15.4583 21.5212V8.88309C15.4636 8.15955 14.8826 7.57861 14.1591 7.57861Z" fill="#565353"/>
      <path d="M38.2999 1.28335C38.2999 0.570378 37.7242 0 37.0165 0C36.3088 0 35.7279 0.57566 35.7279 1.28335V15.6432C35.7279 16.3561 36.3036 16.9318 37.0165 16.9318C37.7242 16.9318 38.2999 16.3561 38.2999 15.6432V1.28335Z" fill="#565353"/>
      <path d="M43.428 10.1823C40.6184 10.1823 38.3369 12.4691 38.3369 15.2787C38.3369 18.0884 40.6237 20.3752 43.428 20.3752C46.2377 20.3752 48.5244 18.0884 48.5244 15.2787C48.5192 12.4691 46.2377 10.1823 43.428 10.1823ZM43.428 22.9788C39.1819 22.9788 35.7279 19.5249 35.7279 15.2787C35.7279 11.0326 39.1819 7.57861 43.428 7.57861C47.6742 7.57861 51.1281 11.0326 51.1281 15.2787C51.1281 19.5249 47.6742 22.9788 43.428 22.9788Z" fill="#565353"/>
      <path d="M33.1348 16.9844C33.214 16.657 33.1665 16.3032 32.9711 15.9916C32.5909 15.3789 31.7881 15.1941 31.1755 15.5743C30.8586 15.7697 30.6579 16.0866 30.5893 16.4246C30.3727 17.3594 29.8974 18.2255 29.1897 18.9227C29.1052 19.0072 29.0154 19.0811 28.9256 19.1603C28.8834 19.1973 28.8411 19.2343 28.7989 19.2712C28.7197 19.3346 28.6352 19.3927 28.556 19.4508C28.4979 19.4931 28.4345 19.5353 28.3711 19.5775C28.2919 19.6251 28.2127 19.6726 28.1335 19.7149C28.0648 19.7518 27.9961 19.7941 27.9275 19.831C27.8377 19.8733 27.7479 19.9156 27.6581 19.9525C27.6 19.9789 27.5367 20.0053 27.4733 20.0317C27.373 20.074 27.2673 20.1057 27.1617 20.1374C27.1089 20.1532 27.0614 20.1691 27.0085 20.1849C26.8976 20.2166 26.7814 20.243 26.6653 20.2641C26.6177 20.2747 26.5755 20.2852 26.5279 20.2905C26.4118 20.3116 26.3009 20.3275 26.1847 20.3381C26.1371 20.3433 26.0896 20.3486 26.0368 20.3539C25.9312 20.3645 25.8203 20.3645 25.7093 20.3697C25.6513 20.3697 25.5932 20.375 25.5351 20.3697C25.44 20.3697 25.3449 20.3645 25.2499 20.3539C25.1759 20.3486 25.102 20.3433 25.0281 20.3381C24.9488 20.3275 24.8696 20.3169 24.7904 20.3011C24.7006 20.2852 24.6161 20.2747 24.5263 20.2536C24.463 20.2377 24.3996 20.2219 24.3362 20.206C24.2359 20.1796 24.1355 20.1532 24.0405 20.1215C23.9877 20.1057 23.9348 20.0846 23.8873 20.0687C23.7817 20.0317 23.6813 19.9948 23.581 19.9472C23.5335 19.9261 23.4859 19.905 23.4384 19.8786C23.3381 19.8311 23.2377 19.7835 23.1426 19.7307C23.0898 19.7043 23.0423 19.6726 22.9895 19.6409C22.8997 19.5881 22.8099 19.5353 22.7254 19.4772C22.6673 19.435 22.6092 19.3927 22.5511 19.3452C22.4772 19.2924 22.4033 19.2343 22.3346 19.1762C22.2712 19.1234 22.2079 19.06 22.1445 19.0019C22.0811 18.9438 22.0177 18.891 21.9596 18.8276C21.9015 18.7695 21.854 18.7114 21.8012 18.648C21.7378 18.5741 21.6744 18.5054 21.6164 18.4315C21.5794 18.384 21.5477 18.3364 21.516 18.2889C21.4474 18.1939 21.3787 18.0988 21.3153 17.9985C21.2889 17.9562 21.2678 17.9139 21.2414 17.8717C21.178 17.7661 21.1199 17.6604 21.0671 17.5548C21.0407 17.502 21.0196 17.4492 20.9932 17.3964C20.9509 17.3013 20.9034 17.201 20.8664 17.1006C20.84 17.032 20.8189 16.9633 20.7978 16.8947C20.7714 16.8102 20.7397 16.7257 20.7185 16.6359C20.6974 16.5567 20.6816 16.4774 20.6604 16.3982C20.6446 16.319 20.6235 16.2398 20.6129 16.1606C20.5971 16.0761 20.5865 15.9968 20.5812 15.9123C20.5707 15.8331 20.5601 15.7486 20.5548 15.6694C20.5495 15.5902 20.5495 15.5162 20.5443 15.437C20.5443 15.3472 20.539 15.2575 20.5443 15.1677C20.5443 15.099 20.5495 15.0356 20.5548 14.967C20.5601 14.8666 20.5707 14.761 20.5812 14.6607C20.5865 14.6079 20.5971 14.5551 20.6024 14.5075C20.6182 14.3913 20.6393 14.2804 20.6657 14.1642C20.6763 14.1273 20.6869 14.0903 20.6921 14.048C20.7238 13.9266 20.7555 13.8051 20.7978 13.6836C20.8083 13.6519 20.8189 13.6255 20.8294 13.5939C20.8717 13.4671 20.9192 13.3456 20.972 13.2242C20.9826 13.1978 20.9984 13.1661 21.0143 13.1397C21.0671 13.0182 21.1252 12.902 21.1886 12.7911C21.2097 12.7541 21.2308 12.7224 21.2519 12.6855C21.3153 12.5798 21.3787 12.4795 21.4474 12.3792C21.479 12.3316 21.516 12.2894 21.5477 12.2418C21.6111 12.1573 21.6744 12.0676 21.7484 11.9884C21.7959 11.9355 21.8435 11.8827 21.891 11.8299C21.9596 11.756 22.023 11.682 22.097 11.6134C22.1286 11.5817 22.1603 11.5553 22.192 11.5236C22.2818 11.4444 22.3716 11.3652 22.4666 11.2912C22.4983 11.2648 22.5353 11.2384 22.5723 11.212C22.6726 11.1381 22.7782 11.0641 22.8839 10.9955C24.4999 9.96034 26.5755 9.92865 28.2232 10.9004L23.6549 14.9353C23.1479 15.437 23.1479 16.2503 23.6496 16.7521C24.1514 17.2591 24.9647 17.2591 25.4664 16.7626L29.9819 12.7858C30.003 12.7647 30.0189 12.7436 30.04 12.7224V12.7277L30.9378 11.8352C30.9484 11.8193 30.9589 11.8035 30.9695 11.7929C31.5346 11.2331 31.5399 10.3195 30.9801 9.74908C30.9748 9.7438 30.9695 9.73853 30.9642 9.72796C30.9484 9.7174 30.9378 9.70156 30.922 9.68571C30.9008 9.65931 30.8744 9.6329 30.8428 9.61177C28.5454 7.49926 25.2604 7.03979 22.53 8.23864C22.4772 8.25977 22.4191 8.28617 22.361 8.31258C22.3505 8.31786 22.3399 8.32314 22.3293 8.32842C22.2448 8.37067 22.155 8.41292 22.06 8.46574C22.0283 8.48158 21.9913 8.50271 21.9596 8.51855C21.9121 8.54496 21.8699 8.57136 21.8223 8.59777C21.7378 8.6453 21.6586 8.69283 21.5741 8.74564C21.5688 8.74564 21.5688 8.75092 21.5635 8.75092C21.5583 8.75092 21.5583 8.75621 21.553 8.75621C21.4526 8.81958 21.347 8.88824 21.2467 8.95689C21.2361 8.96217 21.2255 8.97274 21.215 8.97802C21.1252 9.04139 21.0354 9.10477 20.9456 9.17343C20.9245 9.18927 20.9034 9.20511 20.8823 9.22096C20.8083 9.27905 20.7344 9.34243 20.6604 9.40052C20.6288 9.42693 20.6024 9.45334 20.5707 9.47446C20.5073 9.52727 20.4492 9.58537 20.3858 9.64346C20.3488 9.67515 20.3119 9.71212 20.2802 9.74381C20.2538 9.76493 20.2274 9.79134 20.2063 9.81247C20.1746 9.84415 20.1482 9.87584 20.1165 9.90225C20.0795 9.93922 20.0425 9.97619 20.0056 10.0184C19.9475 10.0765 19.8947 10.1399 19.8418 10.198C19.8154 10.2297 19.789 10.2614 19.7626 10.2878C19.6993 10.3617 19.6412 10.4357 19.5831 10.5096C19.5672 10.5254 19.5567 10.5466 19.5408 10.5624C19.4722 10.6522 19.4035 10.742 19.3401 10.837L19.3348 10.8423C18.606 11.8774 18.1571 13.0552 17.9987 14.2593C17.9987 14.2646 17.9987 14.2646 17.9987 14.2699C17.9828 14.3808 17.9723 14.497 17.9617 14.6079C17.9617 14.6343 17.9564 14.666 17.9564 14.6924C17.9511 14.7821 17.9459 14.8666 17.9406 14.9564C17.9406 15.0092 17.9406 15.0621 17.9353 15.1096C17.9353 15.173 17.9353 15.2416 17.9353 15.305C17.9353 15.3789 17.9353 15.4476 17.9406 15.5215C17.9406 15.5691 17.9406 15.6166 17.9459 15.6588C17.9511 15.7433 17.9564 15.8278 17.9617 15.9176C17.9617 15.9493 17.967 15.9863 17.9723 16.018C17.9828 16.113 17.9934 16.2028 18.004 16.2979C18.0092 16.3243 18.0092 16.356 18.0145 16.3824C18.0304 16.4774 18.0462 16.5725 18.0621 16.6676C18.0673 16.694 18.0726 16.7257 18.0779 16.7521C18.0937 16.8419 18.1149 16.9316 18.136 17.0214C18.1413 17.0531 18.1518 17.0901 18.1624 17.1218C18.1835 17.201 18.2046 17.2855 18.2258 17.3647C18.2363 17.4069 18.2522 17.4545 18.2627 17.4967C18.2839 17.5654 18.305 17.6288 18.3261 17.6974C18.3472 17.7555 18.3631 17.8136 18.3842 17.8717C18.4001 17.9245 18.4212 17.972 18.4423 18.0249C18.4687 18.0988 18.5004 18.1727 18.5321 18.2467C18.5479 18.2836 18.5638 18.3153 18.5796 18.3523C18.6166 18.4421 18.6588 18.5319 18.7011 18.6216C18.7117 18.6428 18.7222 18.6639 18.7328 18.6797C18.7803 18.7801 18.8331 18.8804 18.8912 18.9808C18.8965 18.9913 18.9018 19.0019 18.9071 19.0072C18.9652 19.1128 19.0285 19.2184 19.0919 19.324C19.0919 19.3293 19.0972 19.3293 19.0972 19.3346C19.0972 19.3346 19.1025 19.3399 19.1025 19.3452C19.1658 19.4455 19.2345 19.5459 19.2979 19.6462C19.3084 19.6568 19.3137 19.6726 19.3243 19.6832C19.3824 19.7677 19.4458 19.8522 19.5144 19.9367C19.5355 19.9631 19.5514 19.9842 19.5725 20.0106C19.6253 20.0793 19.6834 20.1479 19.7362 20.2166C19.7679 20.2536 19.7996 20.2905 19.8313 20.3275C19.8788 20.3803 19.9263 20.4331 19.9739 20.4859C20.0161 20.5335 20.0637 20.581 20.1059 20.6285C20.1218 20.6497 20.1429 20.6708 20.164 20.6866C20.1904 20.713 20.2168 20.7342 20.2379 20.7606C20.2855 20.8081 20.333 20.8556 20.3858 20.8979C20.4333 20.9401 20.4809 20.9876 20.5284 21.0299C20.5707 21.0669 20.6182 21.1091 20.6604 21.1461C20.7185 21.1936 20.7766 21.2412 20.8347 21.2887C20.8664 21.3151 20.9034 21.3415 20.9404 21.3679C21.0143 21.426 21.0882 21.4788 21.1622 21.5316C21.1833 21.5475 21.2044 21.5633 21.2255 21.5739C21.3153 21.6372 21.4051 21.6953 21.4949 21.7534C21.5002 21.7587 21.5055 21.764 21.516 21.764C22.2554 22.2288 23.0529 22.5615 23.8767 22.7516C23.8873 22.7569 23.8979 22.7569 23.9137 22.7569C24.0141 22.778 24.1197 22.7991 24.22 22.8203C24.257 22.8255 24.294 22.8308 24.3309 22.8414C24.4102 22.8519 24.4841 22.8678 24.5633 22.8783C24.6267 22.8889 24.6901 22.8942 24.7534 22.8995C24.8062 22.9048 24.8538 22.91 24.9066 22.9153C24.9964 22.9259 25.0862 22.9312 25.1812 22.9364C25.2076 22.9364 25.2288 22.9417 25.2552 22.9417C25.3713 22.947 25.4875 22.9523 25.6037 22.9523C26.5702 22.9576 27.5472 22.7833 28.482 22.4083C28.4979 22.403 28.5137 22.3978 28.5296 22.3925C28.6193 22.3555 28.7144 22.3133 28.8042 22.2763C28.8359 22.2604 28.8676 22.2499 28.8992 22.234C28.9785 22.1971 29.0524 22.1601 29.1263 22.1231C29.1686 22.102 29.2161 22.0756 29.2584 22.0545C29.3217 22.0175 29.3904 21.9858 29.4538 21.9488C29.5013 21.9224 29.5541 21.8908 29.6017 21.8591C29.6333 21.8379 29.6703 21.8221 29.7073 21.801C29.7337 21.7851 29.7601 21.764 29.7865 21.7482C29.834 21.7165 29.8816 21.6848 29.9291 21.6531C29.9925 21.6108 30.0611 21.5633 30.1245 21.5211C30.1615 21.4947 30.1932 21.4682 30.2301 21.4418C30.3041 21.389 30.378 21.3309 30.4519 21.2728C30.4731 21.257 30.4942 21.2359 30.5153 21.22C30.5998 21.1514 30.679 21.0827 30.7583 21.0141C30.7688 21.0035 30.7847 20.9929 30.7952 20.9824C30.8797 20.9032 30.9642 20.8239 31.0487 20.7447C31.054 20.7394 31.0593 20.7394 31.0593 20.7341C32.1103 19.7043 32.8179 18.3893 33.1348 16.9844Z" fill="#565353"/>
      <path d="M73.4257 20.2748H63.7345C66.2326 17.7979 69.9823 14.0218 71.667 12.3159L73.8271 10.214C74.1017 9.88124 74.4502 9.49042 74.4502 8.98342C74.4555 8.21763 73.8376 7.55219 73.0771 7.54691H71.4029H71.3871H60.6503C59.9267 7.54163 59.3405 8.12785 59.3352 8.8461C59.3299 9.56964 59.9109 10.1559 60.6291 10.1559H69.7657C67.7483 12.1733 64.5109 15.416 62.7997 17.1272C61.3896 18.4897 60.138 19.7308 59.4461 20.4808C59.3035 20.6339 58.9391 20.9508 58.9391 21.5476C58.9338 22.2764 59.5201 22.9154 60.2489 22.9207C60.2753 22.9207 60.3704 22.9207 60.3968 22.9207H73.4045C74.1281 22.926 74.7196 22.3398 74.7249 21.611C74.7354 20.8927 74.1492 20.2748 73.4257 20.2748Z" fill="#565353"/>
</svg>